<svg width="131" height="131" viewBox="0 0 131 131" fill="none" xmlns="http://www.w3.org/2000/svg">
<path d="M96.0026 6.922L88.3976 10.7362C88.1191 10.8546 87.8816 11.0523 87.7147 11.3048C87.5478 11.5572 87.4589 11.8532 87.459 12.1558V15.7126C87.4522 18.9461 88.3951 22.1103 90.1708 24.8126C91.541 26.8926 93.3584 29.568 96.3822 31.0942H97.7446C101.112 30.0542 103.623 27.332 105.157 24.992C106.933 22.2896 107.876 19.1254 107.869 15.892V12.1558C107.869 11.8535 107.78 11.5579 107.614 11.3056C107.448 11.0532 107.211 10.8553 106.933 10.7362L98.2698 7.0442C97.8824 6.8804 96.3874 6.7582 96.0026 6.922Z" fill="#E0E0E0"/>
<path d="M95.6956 7.04419L87.0324 10.7362C86.7539 10.8546 86.5163 11.0523 86.3494 11.3048C86.1825 11.5572 86.0936 11.8532 86.0938 12.1558V15.7126C86.094 19.0078 87.0716 22.2288 88.9029 24.9682C90.7343 27.7076 93.3371 29.8422 96.382 31.102C99.7464 30.062 102.258 27.3398 103.795 24.9998C105.57 22.2946 106.513 19.1279 106.506 15.892V12.1558C106.506 11.8532 106.418 11.5572 106.251 11.3048C106.084 11.0523 105.846 10.8546 105.568 10.7362L96.9046 7.04419C96.7132 6.96374 96.5077 6.9223 96.3001 6.9223C96.0924 6.9223 95.8869 6.96374 95.6956 7.04419Z" fill="#F5F5F5"/>
<path d="M106.478 14.9274C106.49 14.9811 106.495 15.0361 106.493 15.0912C106.493 15.2134 106.506 15.3694 106.514 15.5618C106.522 15.7542 106.535 16.0168 106.514 16.308C106.493 16.5992 106.514 16.932 106.467 17.296C106.421 17.66 106.408 18.076 106.332 18.4894C106.298 18.7026 106.272 18.9236 106.228 19.1498C106.184 19.376 106.129 19.6048 106.08 19.8414C105.84 20.8679 105.505 21.8698 105.079 22.834C104.641 23.7934 104.119 24.7122 103.519 25.5796C103.23 25.9696 102.963 26.3596 102.677 26.669C102.536 26.8328 102.417 26.9992 102.274 27.1448L101.878 27.5634C101.631 27.8234 101.379 28.0522 101.169 28.255C100.958 28.4578 100.766 28.6164 100.607 28.7438L100.266 29.0402C100.226 29.0772 100.181 29.1094 100.134 29.1364C100.168 29.0932 100.208 29.054 100.251 29.0194L100.602 28.7048C100.755 28.5722 100.942 28.4058 101.145 28.1848C101.348 27.9638 101.598 27.761 101.837 27.4854L102.224 27.0616C102.357 26.916 102.484 26.7496 102.619 26.5858C102.9 26.2608 103.16 25.8838 103.444 25.4938C104.032 24.6304 104.546 23.7179 104.978 22.7664C105.399 21.8093 105.734 20.8165 105.979 19.7998L106.132 19.1134C106.179 18.8898 106.207 18.6688 106.244 18.4582C106.322 18.037 106.353 17.6392 106.392 17.2752C106.431 16.9112 106.436 16.5836 106.457 16.2924C106.478 16.0012 106.475 15.7542 106.475 15.5488C106.475 15.3434 106.475 15.2004 106.475 15.0782C106.471 15.0279 106.472 14.9774 106.478 14.9274Z" fill="#E0E0E0"/>
<path d="M95.6542 22.6598L90.6855 18.7104L92.0636 16.9762L95.3967 19.6256L100.264 14.1786L101.915 15.6554L95.6542 22.6598Z" fill="white"/>
<path d="M119.127 26.3856H118.186V21.2662C118.186 20.6869 117.956 20.1314 117.546 19.7219C117.136 19.3123 116.581 19.0822 116.002 19.0822C115.422 19.0822 114.867 19.3123 114.457 19.7219C114.048 20.1314 113.818 20.6869 113.818 21.2662V26.3856H112.876V21.2662C112.876 20.4387 113.205 19.6451 113.79 19.06C114.375 18.4749 115.169 18.1462 115.996 18.1462C116.824 18.1462 117.618 18.4749 118.203 19.06C118.788 19.6451 119.116 20.4387 119.116 21.2662L119.127 26.3856Z" fill="#EBEBEB"/>
<path d="M119.41 22.912H112.59C112.148 22.912 111.79 23.2705 111.79 23.7128V28.7126C111.79 29.1549 112.148 29.5134 112.59 29.5134H119.41C119.852 29.5134 120.211 29.1549 120.211 28.7126V23.7128C120.211 23.2705 119.852 22.912 119.41 22.912Z" fill="#EBEBEB"/>
<path d="M116.647 26.383C116.73 26.298 116.796 26.1973 116.841 26.0866C116.886 25.9759 116.908 25.8575 116.907 25.7382C116.908 25.5652 116.861 25.3953 116.771 25.2477C116.68 25.1001 116.551 24.9806 116.396 24.9027C116.242 24.8248 116.069 24.7917 115.896 24.807C115.724 24.8223 115.559 24.8855 115.421 24.9894C115.283 25.0933 115.176 25.2338 115.113 25.395C115.051 25.5562 115.034 25.7318 115.066 25.9018C115.098 26.0719 115.176 26.2297 115.293 26.3575C115.41 26.4852 115.56 26.5778 115.726 26.6248L115.529 27.5036H116.41L116.233 26.6248C116.387 26.5809 116.527 26.4975 116.639 26.383" fill="#FAFAFA"/>
<path d="M12.238 101.104C11.2282 100.472 10.0871 100.08 8.90222 99.9578C8.35622 99.9006 7.76082 99.9162 7.32402 100.246C7.27331 100.275 7.23133 100.317 7.20251 100.368C7.17368 100.419 7.15908 100.477 7.16022 100.535C7.18685 100.617 7.24222 100.688 7.31622 100.733C8.0245 101.238 8.85762 101.54 9.72524 101.605C10.5929 101.671 11.4619 101.498 12.238 101.104Z" fill="#E0E0E0"/>
<path d="M12.1522 101.011C11.3798 100.443 10.6586 99.8088 9.99676 99.1153C9.33355 98.4167 8.86786 97.5544 8.64736 96.6167C8.60345 96.4778 8.59024 96.331 8.60864 96.1864C8.62705 96.0419 8.67663 95.903 8.75396 95.7795C10.47 97.1211 11.8194 98.8579 12.1522 101.011Z" fill="#E0E0E0"/>
<path d="M12.2199 101.091C12.0616 100.153 12.0757 99.1934 12.2615 98.26C12.4524 97.3189 12.9897 96.4838 13.7669 95.92C14.0633 96.6142 13.9359 97.415 13.7279 98.1378C13.4046 99.261 12.8996 100.324 12.2329 101.284" fill="#E0E0E0"/>
<path d="M13.905 104.11C12.8944 104.273 11.9595 104.747 11.2296 105.465C10.4619 106.162 9.92731 107.079 9.69824 108.091C10.7018 108.028 11.552 107.311 12.1682 106.531C12.7844 105.751 13.2082 104.869 13.892 104.128" fill="#E0E0E0"/>
<path d="M14.2712 104.591C13.8687 103.57 13.7276 102.464 13.8606 101.374C13.9936 100.285 14.3966 99.2455 15.033 98.351C15.6154 100.431 15.3996 102.771 14.2712 104.591Z" fill="#E0E0E0"/>
<path d="M16.4945 107.24C15.5601 107.184 14.6297 107.403 13.8186 107.87C13.0074 108.337 12.3513 109.032 11.9315 109.869C11.8769 109.981 11.8249 110.129 11.9029 110.225C11.942 110.264 11.99 110.292 12.0426 110.307C12.0953 110.323 12.1509 110.325 12.2045 110.314C13.1041 110.256 13.8997 109.716 14.5575 109.099C15.2153 108.483 15.7899 107.771 16.5153 107.238" fill="#E0E0E0"/>
<path d="M16.4246 107.1C15.9455 105.558 15.9157 103.911 16.3388 102.352C16.5078 101.741 16.7886 101.099 17.3528 100.813C17.3754 100.798 17.4009 100.787 17.4278 100.783C17.4546 100.778 17.4822 100.778 17.5088 100.785C17.5544 100.809 17.5889 100.85 17.605 100.899C17.7957 101.326 17.8779 101.793 17.8442 102.259C17.8108 102.724 17.7395 103.186 17.631 103.639C17.4542 104.482 17.371 105.387 16.8952 106.115C16.7865 106.29 16.6884 106.471 16.6014 106.658C16.5156 106.843 16.5156 106.918 16.435 107.053" fill="#E0E0E0"/>
<path d="M22.3136 107.974C22.1156 107.107 22.1091 106.208 22.2946 105.338C22.4801 104.469 22.853 103.65 23.3874 102.94C23.4628 102.839 23.5642 102.732 23.6916 102.742C23.884 102.761 23.9334 103.018 23.9256 103.21C23.8458 104.917 23.2872 106.567 22.3136 107.971" fill="#E0E0E0"/>
<path d="M22.8438 108.338C23.8741 108.581 24.9449 108.597 25.9822 108.386C27.0196 108.175 27.9988 107.742 28.8523 107.116C27.847 106.61 26.6973 106.469 25.5997 106.718C24.5129 106.978 23.5197 107.451 22.8438 108.338Z" fill="#E0E0E0"/>
<path d="M23.291 107.233C24.422 105.392 26.5878 104.191 28.751 104.079C28.491 104.958 27.7812 105.639 26.9674 106.052C26.1332 106.426 25.2512 106.684 24.3466 106.817C23.9982 106.884 23.5198 106.96 23.3066 107.233" fill="#E0E0E0"/>
<path d="M22.4253 101.869C22.7683 100.832 23.0018 99.7616 23.1221 98.6759C23.243 97.5835 23.0213 96.4805 22.4877 95.5195C21.4321 97.5605 21.3255 99.9395 22.3941 101.981" fill="#E0E0E0"/>
<path d="M25.9766 100.08C27.2116 97.8388 29.7284 96.0474 32.2738 95.7952C31.291 98.2418 28.613 100.132 25.9766 100.08Z" fill="#E0E0E0"/>
<path d="M25.2021 100.514C27.0403 100.795 28.6081 101.97 30.3267 102.683C30.6877 102.855 31.0872 102.931 31.4863 102.904C31.6718 102.901 31.852 102.842 32.0028 102.734C32.1536 102.626 32.2677 102.475 32.3297 102.3C32.3918 102.125 32.3988 101.935 32.3498 101.757C32.3008 101.578 32.1982 101.418 32.0557 101.299C31.8125 101.072 31.5261 100.895 31.2133 100.779C29.3413 99.9994 27.3315 99.9812 25.3607 100.454" fill="#E0E0E0"/>
<path d="M24.1357 101.804C24.5517 101.923 24.6947 102.139 25.0249 102.42C26.1529 103.378 27.488 104.062 28.9249 104.417C29.0731 104.453 29.2681 104.469 29.3435 104.336C29.4189 104.204 29.3253 104.076 29.2421 103.972C28.6198 103.24 27.8114 102.689 26.9021 102.378C26.0051 102.043 25.2277 101.64 24.1565 101.728" fill="#E0E0E0"/>
<path d="M22.9346 94.0116C23.6892 94.7072 24.581 95.2373 25.5526 95.5677C26.5243 95.8982 27.5543 96.0217 28.5766 95.9304C28.6715 95.9334 28.7642 95.901 28.8366 95.8394C28.9796 95.6834 28.808 95.4442 28.6442 95.3194C26.9854 94.0194 24.9756 93.4994 22.9398 94.0194" fill="#E0E0E0"/>
<path d="M24.3594 93.489C25.358 92.7545 26.5162 92.2666 27.7394 92.0651C28.9626 91.8636 30.2161 91.9541 31.3976 92.3294C30.4763 93.1823 29.295 93.7006 28.0436 93.801C26.8067 93.9147 25.5595 93.809 24.3594 93.489Z" fill="#E0E0E0"/>
<path d="M23.793 89.9088C23.6318 88.2526 23.7358 86.9474 23.6214 85.2834C23.6214 85.1508 23.585 84.9922 23.4602 84.9428C23.286 84.8778 23.143 85.0884 23.0858 85.2652C22.8445 86.0361 22.7826 86.8519 22.9047 87.6504C23.0268 88.4489 23.3298 89.2089 23.7904 89.8724" fill="#E0E0E0"/>
<path d="M23.6729 90.0908C24.7587 89.3944 25.6948 88.4884 26.4263 87.4258C26.9671 86.6848 27.4247 85.7982 27.3025 84.8882C26.921 84.8983 26.5464 84.9914 26.2047 85.1611C25.8629 85.3309 25.5623 85.5731 25.3239 85.871C24.8516 86.4704 24.5082 87.1608 24.315 87.899C24.0966 88.627 23.9432 89.3758 23.6832 90.0908" fill="#E0E0E0"/>
<path d="M26.3691 89.342C28.8416 88.4297 31.131 87.0824 33.1291 85.364C32.3231 85.039 31.4001 85.234 30.5941 85.559C28.7643 86.252 27.2526 87.5926 26.3457 89.3264" fill="#E0E0E0"/>
<path d="M24.4321 90.9982C25.6744 91.1745 26.9348 91.1806 28.1787 91.0164C29.3929 90.8136 30.5421 90.33 31.6757 89.8542C31.7749 89.8246 31.8599 89.7599 31.9149 89.6722C31.932 89.6195 31.933 89.5628 31.9177 89.5096C31.9024 89.4563 31.8716 89.4088 31.8291 89.3732C31.7413 89.3044 31.6391 89.2564 31.5301 89.2328C30.2951 88.8896 28.9639 89.0508 27.7497 89.459C26.5933 89.8551 25.4814 90.371 24.4321 90.9982Z" fill="#E0E0E0"/>
<path d="M17.3263 94.0688C16.4761 92.3528 16.5463 90.3508 17.2665 88.5828C17.7865 89.3628 17.8463 90.3716 17.7527 91.3102C17.6591 92.2488 17.3731 93.2108 17.3523 94.152" fill="#E0E0E0"/>
<path d="M13.9229 92.3554C12.859 92.3412 11.8039 92.5494 10.8251 92.9667C9.84639 93.384 8.96562 94.0012 8.23926 94.7786C9.31374 94.9076 10.402 94.7062 11.3593 94.2014C12.3069 93.6983 13.2008 93.0998 14.0269 92.4152" fill="#E0E0E0"/>
<path d="M11.64 91.591C10.6 91.5078 9.60423 91.3804 8.60583 91.6846C8.1021 91.8264 7.63486 92.0752 7.23598 92.4139C6.8371 92.7527 6.51595 93.1735 6.29443 93.6476C7.27365 93.7261 8.25599 93.5402 9.13883 93.1094C10.0164 92.6794 10.8536 92.1712 11.64 91.591Z" fill="#E0E0E0"/>
<path d="M15.0205 91.6274C14.0871 91.0164 13.1277 90.3924 12.0409 90.1376C10.9541 89.8828 9.70092 90.0726 8.93652 90.8916C9.81532 91.4116 10.8839 91.4688 11.9057 91.4688C12.9275 91.4688 14.1755 91.4558 15.1375 91.7964" fill="#E0E0E0"/>
<path d="M15.0257 91.6768C13.4293 90.1168 12.8261 87.2932 13.4657 85.1508C14.7254 87.0799 15.2767 89.3864 15.0257 91.6768Z" fill="#E0E0E0"/>
<path d="M19.4062 87.236C19.7078 86.534 19.9262 85.8008 20.1862 85.0884C20.4324 84.3655 20.8106 83.6946 21.3017 83.1098C21.7991 82.5168 22.5098 82.1433 23.2803 82.0698C23.0341 83.1497 22.5658 84.1666 21.9051 85.0556C21.2444 85.9446 20.4058 86.6863 19.4426 87.2334" fill="#E0E0E0"/>
<path d="M18.6268 88.1616C18.1302 87.4752 17.553 86.5444 16.877 86.0322C16.201 85.52 15.317 85.2106 14.498 85.4056C14.9252 86.1539 15.5206 86.7925 16.2372 87.2709C16.9538 87.7492 17.772 88.0542 18.6268 88.1616Z" fill="#E0E0E0"/>
<path d="M18.7798 87.2932C18.4259 86.4746 18.1643 85.6191 17.9998 84.7426C17.8364 83.8556 17.9775 82.9393 18.4002 82.1426C19.2764 83.7988 19.5598 85.5772 18.8344 87.3062" fill="#E0E0E0"/>
<path d="M19.4248 82.14C19.9214 80.4994 21.4242 79.28 23.0492 78.734C23.2499 78.6516 23.4677 78.6194 23.6836 78.6404C23.7915 78.6515 23.8937 78.6946 23.9771 78.764C24.0604 78.8335 24.1212 78.9262 24.1516 79.0304C24.2114 79.3086 23.98 79.5504 23.7616 79.7454C22.4932 80.8293 21.0178 81.644 19.4248 82.14Z" fill="#E0E0E0"/>
<path d="M19.443 80.8062C19.5054 79.7454 19.5704 78.6716 19.9162 77.668C20.262 76.6644 20.925 75.7258 21.8896 75.2864C22.0534 76.355 21.5828 77.4184 21.0134 78.3388C20.444 79.2592 19.7576 80.1276 19.417 81.1546" fill="#E0E0E0"/>
<path d="M19.4066 81.5342C18.9958 80.3382 18.9542 78.8172 18.2366 77.7746C17.7348 77.0466 16.9366 76.55 16.5024 75.7778C16.2416 76.5182 16.278 77.3309 16.6038 78.045C16.9297 78.7513 17.3787 79.394 17.9298 79.943C18.4498 80.5098 18.9126 80.9362 19.4066 81.5342Z" fill="#E0E0E0"/>
<path d="M19.4244 116.777C19.3932 116.777 19.3646 108.795 19.362 98.949C19.3594 89.1028 19.3854 81.1182 19.4166 81.1182C19.4478 81.1182 19.4764 89.0976 19.479 98.949C19.4816 108.8 19.4556 116.777 19.4244 116.777Z" fill="#E0E0E0"/>
<path d="M26.4008 92.8624C26.3054 92.9108 26.2052 92.9492 26.1018 92.9768L25.275 93.255C24.5782 93.4916 23.6214 93.8348 22.584 94.2612C21.5466 94.6876 20.5846 95.0594 20.0334 95.5378C19.8101 95.7208 19.6321 95.9531 19.5134 96.2164C19.4328 96.4036 19.4198 96.518 19.4094 96.518C19.399 96.518 19.4094 96.4868 19.4094 96.4322C19.4226 96.3535 19.4426 96.276 19.4692 96.2008C19.5733 95.9223 19.7448 95.674 19.9684 95.478C20.3019 95.196 20.6751 94.9647 21.076 94.7916C21.518 94.5836 22.0094 94.3678 22.5294 94.1546C23.5694 93.7282 24.534 93.3954 25.2386 93.177C25.5922 93.0678 25.8782 92.9872 26.0784 92.9326C26.1834 92.8991 26.2914 92.8756 26.4008 92.8624Z" fill="#E0E0E0"/>
<path d="M28.6888 87.2464C28.6644 87.2797 28.6355 87.3094 28.603 87.3348L28.343 87.5766L27.3862 88.445L24.2038 91.279C22.961 92.3866 21.8872 93.4422 21.1436 94.2378C20.7692 94.6356 20.4754 94.9658 20.2752 95.1946L20.0438 95.4546C20.0196 95.4873 19.9907 95.5162 19.958 95.5404C19.9774 95.504 20.001 95.47 20.0282 95.439C20.075 95.374 20.1452 95.2778 20.2414 95.1608C20.4312 94.9216 20.7172 94.5836 21.0838 94.178C22.0442 93.1282 23.0596 92.1301 24.1258 91.188C25.3738 90.0856 26.5074 89.0924 27.3316 88.38C27.7372 88.0316 28.07 87.7482 28.3118 87.5376L28.5718 87.314C28.6075 87.2862 28.6469 87.2635 28.6888 87.2464Z" fill="#E0E0E0"/>
<path d="M22.8672 92.4048C22.8334 92.3892 23.0934 91.7912 23.3534 91.032C23.6134 90.2728 23.7356 89.6358 23.7694 89.641C23.7425 90.1299 23.6389 90.6115 23.4626 91.0684C23.351 91.3924 23.2216 91.7101 23.0752 92.02C23.023 92.1568 22.9531 92.2861 22.8672 92.4048Z" fill="#E0E0E0"/>
<path d="M19.4322 97.2356C19.3593 97.17 19.2947 97.0958 19.2398 97.0146L18.7484 96.3854C18.3376 95.8524 17.7682 95.1166 17.1286 94.3054C16.489 93.4942 15.904 92.7792 15.4776 92.2566L14.9862 91.643C14.9204 91.5701 14.8621 91.4908 14.812 91.4064C14.8879 91.4688 14.9576 91.5385 15.02 91.6144C15.1474 91.7522 15.3294 91.9576 15.54 92.2124C15.982 92.7324 16.58 93.4344 17.2196 94.2404C17.8592 95.0464 18.4182 95.8004 18.8134 96.336C19.0136 96.596 19.1696 96.8326 19.2762 96.9886C19.3365 97.0654 19.3887 97.1481 19.4322 97.2356Z" fill="#E0E0E0"/>
<path d="M17.9011 95.2726C17.5928 94.9315 17.3731 94.5199 17.2615 94.074C17.1398 93.6823 17.0905 93.2717 17.1159 92.8624H17.1679C17.1607 92.9119 17.144 92.9596 17.1185 93.0028C17.1185 93.0028 17.1185 92.9482 17.1185 92.8546H17.1705C17.1948 93.2534 17.2628 93.6484 17.3733 94.0324C17.5191 94.4579 17.6955 94.8724 17.9011 95.2726Z" fill="#E0E0E0"/>
<path d="M15.9279 92.7999C15.7896 92.696 15.6395 92.6087 15.4807 92.5399C15.0782 92.4186 14.6545 92.3849 14.2379 92.4411C13.816 92.4718 13.3976 92.5388 12.9873 92.6413C12.8168 92.6939 12.6431 92.7356 12.4673 92.7661C12.6191 92.6725 12.785 92.604 12.9587 92.5633C13.3703 92.4359 13.7951 92.3557 14.2249 92.3241C14.6562 92.2669 15.0949 92.3142 15.5041 92.4619C15.6802 92.5221 15.83 92.6416 15.9279 92.7999Z" fill="#E0E0E0"/>
<path d="M15.4598 92.1864C15.4598 92.2046 15.1998 92.0824 14.7734 91.9264C13.6623 91.5483 12.4732 91.4588 11.318 91.6664C10.876 91.7444 10.6108 91.8276 10.603 91.8094C10.6589 91.7735 10.7204 91.7471 10.785 91.7314C10.9551 91.6718 11.1288 91.6232 11.305 91.5858C11.886 91.4584 12.4825 91.4163 13.0756 91.461C13.6677 91.5073 14.25 91.6386 14.8046 91.851C14.9721 91.9152 15.1354 91.9899 15.2934 92.0746C15.3543 92.1031 15.4104 92.1408 15.4598 92.1864Z" fill="#E0E0E0"/>
<path d="M19.4063 89.641C19.2027 89.0734 19.036 88.4933 18.9071 87.9042C18.7391 87.3248 18.6089 86.7351 18.5171 86.1388C18.7209 86.7066 18.8885 87.2866 19.0189 87.8756C19.1853 88.4552 19.3147 89.0449 19.4063 89.641Z" fill="#E0E0E0"/>
<path d="M19.4478 89.641C19.288 89.2817 19.1029 88.9342 18.894 88.601C18.6599 88.2857 18.3854 88.0025 18.0776 87.7586C18.1937 87.7883 18.3013 87.8444 18.3922 87.9224C18.624 88.0908 18.8253 88.2974 18.9876 88.5334C19.236 88.8556 19.3948 89.2377 19.4478 89.641Z" fill="#E0E0E0"/>
<path d="M19.4248 112.521C19.4248 112.521 19.3884 112.329 19.2974 112.001C19.17 111.524 18.9958 111.061 18.7774 110.618C18.0087 109.174 17.058 107.834 15.9486 106.632C15.3168 105.909 14.7032 105.228 14.1832 104.575C13.7151 104.003 13.2926 103.394 12.9196 102.755C12.6687 102.324 12.4556 101.872 12.2826 101.403C12.2228 101.237 12.1812 101.107 12.1578 101.019C12.1426 100.974 12.1313 100.928 12.124 100.881C12.124 100.881 12.1916 101.063 12.3242 101.388C12.5131 101.846 12.7356 102.289 12.9898 102.714C13.3708 103.342 13.7966 103.943 14.2638 104.51C14.7838 105.155 15.4026 105.831 16.0344 106.554C17.1519 107.764 18.1 109.119 18.8528 110.584C19.0701 111.033 19.2384 111.505 19.3546 111.991C19.3854 112.123 19.4089 112.256 19.4248 112.391C19.4288 112.434 19.4288 112.478 19.4248 112.521Z" fill="#E0E0E0"/>
<path d="M25.7298 105.402C25.623 105.469 25.5128 105.531 25.3996 105.587C25.1 105.754 24.8132 105.944 24.5416 106.154C24.1392 106.465 23.7627 106.808 23.4158 107.181C23.0206 107.597 22.615 108.08 22.199 108.6C21.3696 109.64 20.5922 110.566 20.119 111.302C19.8824 111.666 19.7108 111.972 19.599 112.188C19.5456 112.303 19.4848 112.414 19.417 112.521C19.417 112.521 19.417 112.487 19.4482 112.427C19.4794 112.368 19.5054 112.279 19.5574 112.167C19.7049 111.855 19.8717 111.552 20.0566 111.26C20.6881 110.312 21.373 109.4 22.108 108.53C22.524 108.01 22.9374 107.526 23.3404 107.108C23.695 106.737 24.0803 106.397 24.4922 106.091C24.7731 105.881 25.0725 105.696 25.3866 105.54C25.4709 105.497 25.5577 105.459 25.6466 105.426C25.7003 105.405 25.7281 105.397 25.7298 105.402Z" fill="#E0E0E0"/>
<path d="M25.8519 107.711C25.6215 107.762 25.3878 107.795 25.1525 107.812C24.5915 107.87 24.037 107.979 23.4963 108.14C22.9615 108.314 22.4603 108.578 22.0143 108.92C21.6737 109.18 21.5125 109.401 21.4943 109.391C21.4761 109.38 21.5203 109.326 21.5957 109.229C21.7043 109.094 21.8263 108.969 21.9597 108.858C22.4021 108.488 22.9114 108.207 23.4599 108.031C24.0073 107.867 24.5718 107.768 25.1421 107.734C25.3775 107.705 25.6151 107.697 25.8519 107.711Z" fill="#E0E0E0"/>
<path d="M21.6997 109.133C21.6633 109.112 21.9779 108.631 22.2197 107.984C22.4615 107.337 22.5031 106.759 22.5421 106.767C22.5643 106.891 22.5643 107.018 22.5421 107.142C22.5066 107.443 22.4386 107.739 22.3393 108.026C22.2323 108.308 22.0964 108.579 21.9337 108.834C21.8732 108.946 21.7941 109.048 21.6997 109.133Z" fill="#E0E0E0"/>
<path d="M27.7708 99.1986C27.7369 99.2243 27.6992 99.2445 27.659 99.2584L27.3314 99.4066C27.1858 99.469 27.0116 99.547 26.8114 99.651C26.6112 99.755 26.3824 99.859 26.1432 100.002L25.7636 100.218C25.631 100.296 25.5036 100.384 25.3606 100.478C25.0798 100.647 24.799 100.857 24.4974 101.071C23.8602 101.554 23.2589 102.083 22.6982 102.654C22.1481 103.231 21.6414 103.848 21.1824 104.5C20.977 104.809 20.7768 105.098 20.6156 105.384C20.535 105.524 20.4492 105.66 20.3764 105.795L20.1866 106.185C20.0514 106.429 19.9552 106.663 19.859 106.863C19.7628 107.064 19.69 107.24 19.6328 107.383C19.5756 107.526 19.5314 107.628 19.495 107.716C19.4808 107.756 19.4625 107.794 19.4404 107.831C19.4454 107.788 19.4568 107.747 19.4742 107.708L19.5912 107.368C19.6432 107.22 19.7082 107.038 19.7992 106.835C19.8902 106.632 19.9812 106.393 20.1138 106.146C20.1762 106.018 20.2438 105.886 20.3114 105.751C20.379 105.615 20.4648 105.491 20.548 105.335C20.7066 105.043 20.9042 104.752 21.107 104.44C22.0196 103.106 23.1509 101.935 24.4532 100.977C24.7574 100.764 25.0434 100.556 25.3268 100.389C25.4698 100.304 25.6024 100.213 25.735 100.129L26.1224 99.9162C26.3668 99.7784 26.6008 99.677 26.801 99.5808C26.9703 99.4964 27.1439 99.4209 27.321 99.3546L27.659 99.2246C27.6953 99.2123 27.7328 99.2036 27.7708 99.1986Z" fill="#E0E0E0"/>
<path d="M22.7866 102.542C22.8278 102.382 22.9189 102.239 23.0466 102.134C23.3542 101.866 23.7466 101.716 24.1542 101.71C24.5527 101.708 24.9477 101.785 25.3164 101.936C25.4721 101.987 25.62 102.058 25.7558 102.15C25.5967 102.12 25.4408 102.074 25.2904 102.014C24.9258 101.888 24.5426 101.824 24.1568 101.825C23.7743 101.833 23.4044 101.963 23.1012 102.196C22.9874 102.303 22.8822 102.419 22.7866 102.542Z" fill="#E0E0E0"/>
<path d="M22.0352 103.312C22.1832 102.986 22.2889 102.643 22.3498 102.29C22.3708 101.933 22.3472 101.575 22.2796 101.224C22.3465 101.312 22.3911 101.414 22.4096 101.523C22.544 102.037 22.48 102.583 22.2302 103.052C22.1314 103.229 22.0456 103.32 22.0352 103.312Z" fill="#E0E0E0"/>
<path d="M13.9102 113.665C14.0818 116.717 15.0022 119.819 16.4166 122.957H22.5656C23.915 119.85 24.7704 116.754 24.9212 113.665H13.9102Z" fill="#E0E0E0"/>
<path d="M23.9251 118.602C23.9251 118.634 21.8997 118.66 19.4037 118.66C16.9077 118.66 14.8823 118.634 14.8823 118.602C14.8823 118.571 16.9051 118.54 19.4063 118.54C21.9075 118.54 23.9251 118.571 23.9251 118.602Z" fill="#FAFAFA"/>
<path d="M23.7872 119.707C23.7872 119.739 21.8892 119.765 19.5492 119.765C17.2092 119.765 15.3086 119.739 15.3086 119.707C15.3086 119.676 17.2066 119.65 19.5492 119.65C21.8918 119.65 23.7872 119.676 23.7872 119.707Z" fill="#FAFAFA"/>
<path d="M16.5152 115.68C16.5915 116.622 16.5915 117.569 16.5152 118.511C16.4389 117.569 16.4389 116.622 16.5152 115.68Z" fill="#FAFAFA"/>
<path d="M19.8096 115.68C19.8859 116.656 19.8859 117.637 19.8096 118.613C19.7334 117.637 19.7334 116.656 19.8096 115.68Z" fill="#FAFAFA"/>
<path d="M22.9034 115.644C22.9797 116.64 22.9797 117.64 22.9034 118.636C22.8271 117.64 22.8271 116.64 22.9034 115.644Z" fill="#FAFAFA"/>
<path d="M24.7262 115.68C24.7262 115.711 22.3524 115.737 19.4248 115.737C16.4972 115.737 14.1182 115.711 14.1182 115.68C14.1182 115.649 16.4946 115.623 19.4248 115.623C22.355 115.623 24.7262 115.636 24.7262 115.68Z" fill="#FAFAFA"/>
<path d="M120.128 87.2178C120.691 86.9692 121.168 86.5611 121.501 86.044C121.834 85.5269 122.009 84.9235 122.003 84.3084C122.003 82.5716 120.703 81.1572 119.067 81.152C117.432 81.1468 116.111 82.5456 116.106 84.272C116.094 84.8919 116.266 85.5015 116.6 86.0239C116.934 86.5462 117.415 86.958 117.983 87.2074C113.446 87.8912 113.651 92.8208 113.651 92.8208L124.382 92.8702C124.382 92.8702 124.626 87.8964 120.128 87.2178Z" fill="#EBEBEB"/>
<path d="M71.8929 15.5306C72.2881 15.4529 72.6523 15.2623 72.9412 14.9816C73.2302 14.701 73.4314 14.3426 73.5205 13.9498C73.5945 13.6977 73.6164 13.4332 73.5848 13.1724C73.5532 12.9116 73.4688 12.66 73.3368 12.4329C73.2048 12.2058 73.0279 12.008 72.8169 11.8514C72.6059 11.6949 72.3653 11.583 72.1096 11.5226C71.854 11.4621 71.5887 11.4544 71.33 11.4998C71.0712 11.5452 70.8245 11.6428 70.6047 11.7867C70.3849 11.9306 70.1968 12.1178 70.0517 12.3368C69.9066 12.5558 69.8077 12.8021 69.7609 13.0606C69.6609 13.4548 69.6801 13.8698 69.8162 14.253C69.9523 14.6363 70.1991 14.9705 70.5253 15.2134C67.5275 14.9768 66.9321 18.154 66.9321 18.154L73.7701 19.7738C73.7701 19.7738 74.6645 16.62 71.8929 15.5306Z" fill="#EBEBEB"/>
<path d="M120.422 41.9986C120.75 41.7935 121.01 41.4967 121.171 41.145C121.332 40.7933 121.386 40.4021 121.327 40.02C121.307 39.767 121.236 39.5207 121.118 39.2963C120.999 39.0719 120.836 38.8742 120.638 38.7154C120.44 38.5565 120.212 38.4399 119.967 38.3728C119.723 38.3056 119.467 38.2893 119.215 38.325C118.964 38.3606 118.723 38.4473 118.507 38.5798C118.29 38.7123 118.103 38.8878 117.957 39.0953C117.811 39.3029 117.71 39.5382 117.658 39.7867C117.607 40.0351 117.607 40.2915 117.658 40.54C117.706 40.9269 117.868 41.2909 118.123 41.5857C118.378 41.8806 118.715 42.093 119.091 42.1962C116.332 43.0308 116.902 46.078 116.902 46.078L123.578 45.1446C123.578 45.1446 123.279 42.0168 120.422 41.9986Z" fill="#F5F5F5"/>
<path d="M13.2913 42.9424L9.68506 40.0746L10.6835 38.8162L13.1041 40.7376L16.6349 36.7882L17.8335 37.8594L13.2913 42.9424Z" fill="#F5F5F5"/>
<path d="M122.538 123.048C122.538 123.087 96.4991 123.116 64.3891 123.116C32.2791 123.116 6.23486 123.087 6.23486 123.048C6.23486 123.009 32.2661 122.981 64.3891 122.981C96.5121 122.981 122.538 123.012 122.538 123.048Z" fill="#263238"/>
<path d="M18.2107 47.0946L10.2365 51.096C9.94718 51.222 9.70115 51.43 9.5288 51.6943C9.35644 51.9587 9.26531 52.2677 9.26666 52.5832V56.3142C9.25751 59.708 10.2457 63.0297 12.1085 65.8666C13.5463 68.0558 15.4521 70.8534 18.6215 72.4524H20.0515C23.5823 71.376 26.2161 68.5082 27.8255 66.0538C29.689 63.2171 30.6781 59.8955 30.6699 56.5014V52.5832C30.6695 52.2664 30.5761 51.9566 30.4014 51.6923C30.2268 51.4279 29.9784 51.2206 29.6871 51.096L20.5897 47.2246C20.1867 47.053 18.6267 46.923 18.2107 47.0946Z" fill="#F0B73F"/>
<path opacity="0.3" d="M18.2107 47.0946L10.2365 51.096C9.94718 51.222 9.70115 51.43 9.5288 51.6943C9.35644 51.9587 9.26531 52.2677 9.26666 52.5832V56.3142C9.25751 59.708 10.2457 63.0297 12.1085 65.8666C13.5463 68.0558 15.4521 70.8534 18.6215 72.4524H20.0515C23.5823 71.376 26.2161 68.5082 27.8255 66.0538C29.689 63.2171 30.6781 59.8955 30.6699 56.5014V52.5832C30.6695 52.2664 30.5761 51.9566 30.4014 51.6923C30.2268 51.4279 29.9784 51.2206 29.6871 51.096L20.5897 47.2246C20.1867 47.053 18.6267 46.923 18.2107 47.0946Z" fill="black"/>
<path d="M17.8911 47.2246L8.80409 51.096C8.51277 51.2206 8.26439 51.4279 8.08971 51.6922C7.91502 51.9566 7.8217 52.2663 7.82129 52.5832V56.3142C7.82149 59.7695 8.84653 63.1471 10.7667 66.0198C12.6869 68.8924 15.416 71.131 18.6087 72.4524C22.1369 71.376 24.7707 68.5082 26.3827 66.0538C28.2462 63.2171 29.2353 59.8954 29.2271 56.5014V52.5832C29.2269 52.2666 29.134 51.9571 28.9598 51.6928C28.7855 51.4284 28.5377 51.221 28.2469 51.096L19.1469 47.2246C18.9481 47.1411 18.7346 47.0981 18.519 47.0981C18.3034 47.0981 18.0899 47.1411 17.8911 47.2246Z" fill="#F0B73F"/>
<path opacity="0.3" d="M20.6799 64.1473C23.747 62.9577 25.269 59.5069 24.0794 56.4398C22.8897 53.3727 19.4389 51.8507 16.3718 53.0403C13.3047 54.23 11.7828 57.6808 12.9724 60.7479C14.1621 63.815 17.6128 65.337 20.6799 64.1473Z" fill="black"/>
<path d="M18.5224 58.9246C19.888 58.9246 20.995 57.8175 20.995 56.452C20.995 55.0864 19.888 53.9794 18.5224 53.9794C17.1568 53.9794 16.0498 55.0864 16.0498 56.452C16.0498 57.8175 17.1568 58.9246 18.5224 58.9246Z" fill="white"/>
<path d="M14.0088 62.4762C14.4064 61.6443 15.034 60.9436 15.8173 60.4571C16.6006 59.9705 17.5068 59.7185 18.4288 59.7306C19.3742 59.7308 20.3021 59.9859 21.1148 60.4691C21.9274 60.9523 22.5947 61.6457 23.0464 62.4762C23.0464 62.4762 21.5878 64.6342 18.3664 64.5562C17.5315 64.5529 16.7078 64.3646 15.9543 64.005C15.2009 63.6453 14.5364 63.1232 14.0088 62.4762Z" fill="white"/>
<path d="M24.4789 58.5944C24.4759 58.5624 24.4759 58.5302 24.4789 58.4982C24.4789 58.428 24.4789 58.3344 24.4555 58.2174C24.4555 58.155 24.4555 58.0848 24.4555 58.0094C24.4555 57.934 24.4295 57.8508 24.4165 57.7494C24.3894 57.5431 24.3477 57.3389 24.2917 57.1384C24.1503 56.5831 23.9269 56.0521 23.6287 55.5628C23.2376 54.9135 22.7257 54.3451 22.1207 53.8884C21.3898 53.3326 20.5383 52.9567 19.6351 52.7912C18.5981 52.6004 17.5291 52.6901 16.5385 53.0512C16.2704 53.1443 16.0097 53.2573 15.7585 53.3892C15.5073 53.5269 15.2658 53.6815 15.0357 53.852C14.8016 54.0281 14.5785 54.2183 14.3675 54.4214C14.1606 54.6359 13.9678 54.8634 13.7903 55.1026C13.4263 55.5956 13.1428 56.1432 12.9505 56.725C12.5448 57.9312 12.5448 59.2369 12.9505 60.443C13.1417 61.0253 13.4252 61.5731 13.7903 62.0654C13.9678 62.3055 14.1606 62.5339 14.3675 62.7492C14.5778 62.9523 14.801 63.1416 15.0357 63.316C15.4871 63.6603 15.9898 63.9314 16.5255 64.1194C17.5161 64.4805 18.5851 64.5703 19.6221 64.3794C20.4456 64.2244 21.227 63.8971 21.9153 63.419C22.6035 62.9409 23.183 62.3228 23.6157 61.6052C23.9105 61.1192 24.1305 60.5915 24.2683 60.04C24.324 59.8386 24.3657 59.6336 24.3931 59.4264C24.3931 59.338 24.4243 59.2548 24.4321 59.1664C24.4399 59.078 24.4321 59.0208 24.4321 58.9584L24.4555 58.675C24.4528 58.643 24.4528 58.6108 24.4555 58.5788C24.4583 58.6108 24.4583 58.643 24.4555 58.675C24.4555 58.7478 24.4555 58.8414 24.4555 58.961C24.4555 59.0234 24.4555 59.0936 24.4555 59.169C24.4555 59.2444 24.4347 59.3302 24.4217 59.429C24.4009 59.639 24.3626 59.8468 24.3073 60.0504C24.1753 60.6137 23.957 61.1531 23.6599 61.6494C22.9533 62.8556 21.8465 63.7762 20.5318 64.2512C19.217 64.7262 17.7774 64.7256 16.4631 64.2494C16.1954 64.1532 15.9348 64.0385 15.6831 63.9062C15.4271 63.7623 15.1821 63.5998 14.9499 63.42C14.708 63.2427 14.4787 63.049 14.2635 62.8402C14.0565 62.6241 13.8637 62.3948 13.6863 62.1538C13.312 61.6504 13.0206 61.0904 12.8231 60.495C12.6256 59.8805 12.5213 59.2398 12.5137 58.5944C12.5209 57.9487 12.6261 57.3079 12.8257 56.6938C13.0212 56.0981 13.3118 55.5379 13.6863 55.035C13.8691 54.7906 14.0671 54.5578 14.2791 54.3382C14.4935 54.1296 14.722 53.9359 14.9629 53.7584C15.1934 53.5825 15.4358 53.4227 15.6883 53.28C15.94 53.1469 16.2006 53.0313 16.4683 52.9342C17.4793 52.5679 18.5699 52.4781 19.6273 52.6742C20.466 52.8355 21.2606 53.174 21.9579 53.6673C22.6551 54.1605 23.239 54.797 23.6703 55.5342C23.9674 56.0315 24.1858 56.5717 24.3177 57.1358C24.373 57.3385 24.4113 57.5455 24.4321 57.7546C24.4321 57.8456 24.4607 57.9288 24.4659 58.0146V58.2252C24.4659 58.3448 24.4659 58.4384 24.4659 58.5086C24.4726 58.5368 24.4769 58.5655 24.4789 58.5944Z" fill="#263238"/>
<path d="M29.1956 55.49C29.2077 55.5473 29.2138 55.6056 29.2138 55.6642C29.2138 55.789 29.2138 55.9528 29.2346 56.1582C29.2554 56.3636 29.2554 56.634 29.2346 56.9382C29.2346 57.0916 29.2346 57.2528 29.2346 57.427C29.2346 57.6012 29.2346 57.7832 29.2008 57.973C29.1644 58.3552 29.1384 58.7764 29.0578 59.2236C29.024 59.4472 28.9954 59.6786 28.9486 59.9152C28.9018 60.1518 28.8446 60.3936 28.7926 60.6432C28.5425 61.718 28.1944 62.7676 27.7526 63.7788C27.296 64.7848 26.7504 65.7481 26.1224 66.657C25.8208 67.0652 25.5426 67.4604 25.241 67.801C25.0954 67.9726 24.9602 68.1468 24.8172 68.3002L24.4038 68.737C24.1438 69.0256 23.8838 69.257 23.6602 69.4624C23.4731 69.6464 23.276 69.82 23.07 69.9824L22.6852 70.2944C22.643 70.3322 22.5968 70.3654 22.5474 70.3932C22.5843 70.3497 22.6252 70.3096 22.6696 70.2736L23.0362 69.9434C23.2 69.803 23.395 69.6288 23.6082 69.4234C23.8214 69.218 24.0814 68.9762 24.3336 68.6876L24.7392 68.2456C24.8796 68.0922 24.9992 67.918 25.1552 67.7464C25.449 67.4058 25.722 67.0106 26.021 66.5998C26.6381 65.6946 27.1757 64.7377 27.6278 63.7398C28.0671 62.733 28.4152 61.6888 28.6678 60.6198L28.829 59.897C28.8758 59.663 28.907 59.4316 28.946 59.2106C29.0292 58.7686 29.0604 58.35 29.102 57.9704C29.1254 57.7806 29.141 57.5986 29.1462 57.427L29.1696 56.9408C29.193 56.6366 29.1878 56.374 29.1878 56.1608C29.1878 55.9476 29.1878 55.7942 29.1878 55.6668C29.1859 55.6077 29.1885 55.5486 29.1956 55.49Z" fill="#263238"/>
<path d="M92.4173 123.048H30.9377C30.5349 123.042 30.1374 122.956 29.7679 122.795C29.3984 122.635 29.0642 122.403 28.7843 122.113C28.5045 121.823 28.2845 121.481 28.1369 121.106C27.9893 120.731 27.9171 120.331 27.9243 119.928V25.9592C27.9171 25.5564 27.9893 25.1561 28.1369 24.7813C28.2845 24.4064 28.5045 24.0643 28.7843 23.7746C29.0642 23.4848 29.3984 23.253 29.7679 23.0925C30.1374 22.932 30.5349 22.8459 30.9377 22.8392H92.4173C92.82 22.8459 93.2174 22.9321 93.5867 23.0926C93.9561 23.2531 94.2902 23.4849 94.5698 23.7747C94.8495 24.0645 95.0692 24.4066 95.2165 24.7815C95.3638 25.1563 95.4357 25.5565 95.4281 25.9592V119.934C95.435 120.336 95.3626 120.735 95.215 121.11C95.0674 121.484 94.8475 121.825 94.568 122.115C94.2884 122.404 93.9545 122.635 93.5855 122.795C93.2165 122.956 92.8196 123.042 92.4173 123.048Z" fill="#263238"/>
<path d="M62.8548 118.491C62.8646 119.058 62.7053 119.616 62.397 120.093C62.0888 120.57 61.6456 120.944 61.124 121.168C60.6023 121.392 60.0258 121.456 59.4678 121.351C58.9098 121.246 58.3956 120.978 57.9906 120.58C57.5857 120.182 57.3084 119.672 57.1939 119.116C57.0795 118.56 57.1332 117.983 57.3481 117.457C57.5631 116.932 57.9295 116.482 58.4009 116.166C58.8722 115.849 59.4271 115.68 59.9948 115.68C60.7467 115.674 61.4703 115.966 62.0066 116.493C62.5429 117.02 62.848 117.739 62.8548 118.491Z" fill="#455A64"/>
<path d="M68.5932 28.138H54.8132C54.6848 28.136 54.5581 28.1086 54.4403 28.0576C54.3224 28.0066 54.2158 27.9329 54.1265 27.8407C54.0371 27.7484 53.9668 27.6395 53.9196 27.5201C53.8724 27.4007 53.8491 27.2732 53.8512 27.1448C53.847 26.8853 53.946 26.6347 54.1263 26.448C54.3067 26.2613 54.5537 26.1538 54.8132 26.149H68.5932C68.8527 26.1538 69.0998 26.2613 69.2801 26.448C69.4604 26.6347 69.5594 26.8853 69.5552 27.1448C69.5573 27.2732 69.534 27.4007 69.4868 27.5201C69.4396 27.6395 69.3693 27.7484 69.2799 27.8407C69.1906 27.9329 69.084 28.0066 68.9662 28.0576C68.8483 28.1086 68.7216 28.136 68.5932 28.138Z" fill="#455A64"/>
<path d="M93.2437 29.9918H29.9961V113.675H93.2437V29.9918Z" fill="white"/>
<path d="M93.2442 29.9918H90.5454V113.675H93.2442V29.9918Z" fill="#F5F5F5"/>
<path d="M91.892 60.0582C91.6691 60.0575 91.4555 59.9684 91.2981 59.8105C91.1406 59.6526 91.0522 59.4387 91.0522 59.2158V40.7064C91.0522 40.4834 91.1406 40.2695 91.2981 40.1116C91.4555 39.9537 91.6691 39.8646 91.892 39.864C92.1155 39.864 92.3297 39.9527 92.4877 40.1107C92.6457 40.2687 92.7344 40.4829 92.7344 40.7064V59.2158C92.7344 59.4392 92.6457 59.6534 92.4877 59.8114C92.3297 59.9694 92.1155 60.0582 91.892 60.0582Z" fill="#E0E0E0"/>
<path d="M84.9942 49.0368H38.3606C38.0048 49.0368 37.6636 48.8954 37.412 48.6438C37.1604 48.3922 37.019 48.051 37.019 47.6952C37.019 47.3394 37.1604 46.9981 37.412 46.7465C37.6636 46.4949 38.0048 46.3536 38.3606 46.3536H84.9942C85.3501 46.3536 85.6913 46.4949 85.9429 46.7465C86.1945 46.9981 86.3358 47.3394 86.3358 47.6952C86.3358 48.051 86.1945 48.3922 85.9429 48.6438C85.6913 48.8954 85.3501 49.0368 84.9942 49.0368Z" fill="#E0E0E0"/>
<path d="M77.8205 39.24H48.4847C48.1289 39.24 47.7876 39.0987 47.536 38.8471C47.2844 38.5955 47.1431 38.2542 47.1431 37.8984C47.1431 37.5426 47.2844 37.2014 47.536 36.9498C47.7876 36.6982 48.1289 36.5568 48.4847 36.5568H77.8205C78.1763 36.5568 78.5175 36.6982 78.7691 36.9498C79.0207 37.2014 79.1621 37.5426 79.1621 37.8984C79.1621 38.2542 79.0207 38.5955 78.7691 38.8471C78.5175 39.0987 78.1763 39.24 77.8205 39.24Z" fill="#F0B73F"/>
<path d="M78.3719 54.437H44.9827C44.6269 54.437 44.2857 54.2956 44.0341 54.044C43.7825 53.7924 43.6411 53.4512 43.6411 53.0954C43.6411 52.7396 43.7825 52.3983 44.0341 52.1467C44.2857 51.8951 44.6269 51.7538 44.9827 51.7538H78.3719C78.5481 51.7538 78.7226 51.7885 78.8853 51.8559C79.0481 51.9233 79.196 52.0221 79.3206 52.1467C79.4451 52.2713 79.544 52.4192 79.6114 52.582C79.6788 52.7447 79.7135 52.9192 79.7135 53.0954C79.7135 53.2716 79.6788 53.446 79.6114 53.6088C79.544 53.7716 79.4451 53.9195 79.3206 54.044C79.196 54.1686 79.0481 54.2674 78.8853 54.3349C78.7226 54.4023 78.5481 54.437 78.3719 54.437Z" fill="#E0E0E0"/>
<path d="M63.2969 77.98H37.6062C37.2504 77.98 36.9092 77.8387 36.6576 77.5871C36.406 77.3355 36.2646 76.9942 36.2646 76.6384C36.2646 76.4622 36.2994 76.2878 36.3668 76.125C36.4342 75.9622 36.533 75.8143 36.6576 75.6898C36.7822 75.5652 36.9301 75.4664 37.0928 75.3989C37.2556 75.3315 37.4301 75.2968 37.6062 75.2968H63.2969C63.473 75.2968 63.6475 75.3315 63.8103 75.3989C63.973 75.4664 64.1209 75.5652 64.2455 75.6898C64.3701 75.8143 64.4689 75.9622 64.5363 76.125C64.6038 76.2878 64.6385 76.4622 64.6385 76.6384C64.6385 76.9942 64.4971 77.3355 64.2455 77.5871C63.9939 77.8387 63.6527 77.98 63.2969 77.98Z" fill="#E0E0E0"/>
<path d="M84.2398 72.3562H37.6062C37.2504 72.3562 36.9092 72.2149 36.6576 71.9633C36.406 71.7117 36.2646 71.3704 36.2646 71.0146C36.2646 70.8385 36.2994 70.6642 36.3668 70.5016C36.4343 70.339 36.5331 70.1912 36.6578 70.0669C36.7824 69.9425 36.9303 69.8439 37.093 69.7768C37.2558 69.7096 37.4302 69.6753 37.6062 69.6756H84.2398C84.4159 69.6753 84.5903 69.7096 84.7531 69.7768C84.9158 69.8439 85.0637 69.9425 85.1883 70.0669C85.313 70.1912 85.4118 70.339 85.4793 70.5016C85.5467 70.6642 85.5815 70.8385 85.5815 71.0146C85.5815 71.1908 85.5468 71.3652 85.4793 71.528C85.4119 71.6908 85.3131 71.8387 85.1885 71.9633C85.0639 72.0878 84.916 72.1867 84.7533 72.2541C84.5905 72.3215 84.416 72.3562 84.2398 72.3562Z" fill="#E0E0E0"/>
<path d="M84.24 87.769H43.4227C42.6817 87.769 42.0811 88.3696 42.0811 89.1106C42.0811 89.8515 42.6817 90.4522 43.4227 90.4522H84.24C84.981 90.4522 85.5816 89.8515 85.5816 89.1106C85.5816 88.3696 84.981 87.769 84.24 87.769Z" fill="#E0E0E0"/>
<path d="M84.2398 96.18H37.6062C37.2504 96.18 36.9092 96.0387 36.6576 95.7871C36.406 95.5355 36.2646 95.1942 36.2646 94.8384C36.266 94.4835 36.408 94.1436 36.6594 93.8931C36.9109 93.6426 37.2513 93.502 37.6062 93.502H84.2398C84.416 93.502 84.5905 93.5367 84.7533 93.6041C84.916 93.6716 85.0639 93.7704 85.1885 93.895C85.3131 94.0195 85.4119 94.1674 85.4793 94.3302C85.5468 94.493 85.5815 94.6674 85.5815 94.8436C85.5801 95.1985 85.4381 95.5384 85.1867 95.7889C84.9352 96.0394 84.5948 96.18 84.2398 96.18Z" fill="#E0E0E0"/>
<path d="M84.2398 102.009H37.6062C37.2504 102.009 36.9092 101.868 36.6576 101.616C36.406 101.365 36.2646 101.023 36.2646 100.668C36.2646 100.312 36.406 99.9705 36.6576 99.7189C36.9092 99.4673 37.2504 99.326 37.6062 99.326H84.2398C84.416 99.326 84.5905 99.3607 84.7533 99.4281C84.916 99.4955 85.0639 99.5944 85.1885 99.7189C85.3131 99.8435 85.4119 99.9914 85.4793 100.154C85.5468 100.317 85.5815 100.491 85.5815 100.668C85.5815 101.023 85.4401 101.365 85.1885 101.616C84.9369 101.868 84.5957 102.009 84.2398 102.009Z" fill="#E0E0E0"/>
<path d="M39.7052 89.1106C39.7052 89.3863 39.6234 89.6559 39.4701 89.8851C39.3169 90.1143 39.0991 90.2929 38.8443 90.3983C38.5895 90.5037 38.3091 90.5312 38.0387 90.4772C37.7683 90.4232 37.52 90.2902 37.3252 90.0951C37.1304 89.8999 36.9979 89.6514 36.9444 89.3809C36.891 89.1104 36.9189 88.8301 37.0248 88.5755C37.1307 88.3209 37.3097 88.1034 37.5392 87.9506C37.7687 87.7978 38.0384 87.7165 38.3142 87.717C38.6833 87.7177 39.0371 87.8648 39.2979 88.1261C39.5587 88.3873 39.7052 88.7414 39.7052 89.1106Z" fill="#F0B73F"/>
<path d="M84.2402 67.1172H43.4202C43.0644 67.1172 42.7232 66.9758 42.4716 66.7242C42.22 66.4726 42.0786 66.1314 42.0786 65.7756C42.0786 65.4197 42.22 65.0785 42.4716 64.8269C42.7232 64.5753 43.0644 64.434 43.4202 64.434H84.2402C84.4164 64.434 84.5909 64.4687 84.7536 64.5361C84.9164 64.6035 85.0643 64.7023 85.1889 64.8269C85.3134 64.9515 85.4123 65.0994 85.4797 65.2622C85.5471 65.4249 85.5818 65.5994 85.5818 65.7756C85.5818 65.9517 85.5471 66.1262 85.4797 66.289C85.4123 66.4517 85.3134 66.5996 85.1889 66.7242C85.0643 66.8488 84.9164 66.9476 84.7536 67.015C84.5909 67.0825 84.4164 67.1172 84.2402 67.1172Z" fill="#E0E0E0"/>
<path d="M38.3135 67.1692C39.0832 67.1692 39.7071 66.5452 39.7071 65.7756C39.7071 65.0059 39.0832 64.382 38.3135 64.382C37.5439 64.382 36.9199 65.0059 36.9199 65.7756C36.9199 66.5452 37.5439 67.1692 38.3135 67.1692Z" fill="#F0B73F"/>
<path d="M82.9376 110.54H72.4726C71.9058 110.54 71.3622 110.315 70.9614 109.914C70.5606 109.513 70.3354 108.969 70.3354 108.403C70.3354 107.836 70.5606 107.292 70.9614 106.891C71.3622 106.491 71.9058 106.265 72.4726 106.265H82.9376C83.5045 106.265 84.0481 106.491 84.4489 106.891C84.8497 107.292 85.0748 107.836 85.0748 108.403C85.0748 108.969 84.8497 109.513 84.4489 109.914C84.0481 110.315 83.5045 110.54 82.9376 110.54Z" fill="#F0B73F"/>
<path d="M29.0266 9.69102L18.1794 15.1328C17.7825 15.3016 17.4439 15.5833 17.2059 15.9429C16.9678 16.3026 16.8407 16.7243 16.8404 17.1556V22.2308C16.8276 26.8497 18.173 31.3705 20.7092 35.2308C22.6644 38.2 25.254 42.0064 29.5674 44.18H31.5122C36.3118 42.7162 39.8946 38.8136 42.0864 35.4778C44.6227 31.6175 45.9681 27.0967 45.9552 22.4778V17.1556C45.9558 16.7255 45.8303 16.3046 45.5941 15.9451C45.358 15.5855 45.0216 15.3031 44.6266 15.1328L32.261 9.86002C31.7098 9.63382 29.5778 9.45702 29.0266 9.69102Z" fill="#F0B73F"/>
<path opacity="0.3" d="M29.0266 9.69102L18.1794 15.1328C17.7825 15.3016 17.4439 15.5833 17.2059 15.9429C16.9678 16.3026 16.8407 16.7243 16.8404 17.1556V22.2308C16.8276 26.8497 18.173 31.3705 20.7092 35.2308C22.6644 38.2 25.254 42.0064 29.5674 44.18H31.5122C36.3118 42.7162 39.8946 38.8136 42.0864 35.4778C44.6227 31.6175 45.9681 27.0967 45.9552 22.4778V17.1556C45.9558 16.7255 45.8303 16.3046 45.5941 15.9451C45.358 15.5855 45.0216 15.3031 44.6266 15.1328L32.261 9.86002C31.7098 9.63382 29.5778 9.45702 29.0266 9.69102Z" fill="black"/>
<path d="M28.5897 9.85998L16.2319 15.1328C15.8353 15.3016 15.4971 15.5835 15.2594 15.9432C15.0218 16.3028 14.8952 16.7245 14.8955 17.1556V22.2308C14.8961 26.9302 16.2904 31.5239 18.902 35.4309C21.5136 39.3379 25.2252 42.3826 29.5673 44.18C34.3669 42.7162 37.9497 38.8136 40.1389 35.4778C42.6763 31.618 44.0218 27.0969 44.0077 22.4778V17.1556C44.008 16.7245 43.8814 16.3028 43.6438 15.9432C43.4062 15.5835 43.068 15.3016 42.6713 15.1328L30.3265 9.85998C30.0521 9.74239 29.7567 9.68176 29.4581 9.68176C29.1596 9.68176 28.8641 9.74239 28.5897 9.85998Z" fill="#F0B73F"/>
<path d="M43.9685 21.1102C43.9717 21.13 43.9717 21.1502 43.9685 21.17C43.9685 21.2168 43.9685 21.274 43.9685 21.3442C43.9685 21.5106 43.9815 21.7342 43.9919 22.0176C44.0023 22.301 44.0179 22.665 43.9919 23.081C43.9919 23.289 43.9919 23.51 43.9711 23.744C43.9711 23.8636 43.9711 23.9832 43.9711 24.108C43.9711 24.2328 43.9477 24.368 43.9347 24.4902C43.8827 25.0102 43.8489 25.5822 43.7397 26.188C43.6903 26.4896 43.6513 26.8068 43.5889 27.1266C43.5265 27.4464 43.4485 27.7766 43.3757 28.1146C43.0323 29.576 42.5545 31.0025 41.9483 32.376C41.3289 33.7431 40.5894 35.0526 39.7383 36.289C39.3275 36.8454 38.9583 37.3836 38.5423 37.849C38.3421 38.083 38.1601 38.3196 37.9651 38.5276L37.4035 39.1256C37.0551 39.5156 36.6963 39.825 36.3973 40.1136C36.2439 40.254 36.1061 40.3892 35.9735 40.5062L35.6095 40.8L35.0895 41.2264L34.9517 41.3356C34.9205 41.359 34.9023 41.3694 34.9023 41.3668C34.9023 41.3642 34.9023 41.3512 34.9413 41.3226L35.0713 41.2056L35.5731 40.761L35.9397 40.4412C36.0723 40.3242 36.1997 40.1812 36.3557 40.0408C36.6495 39.7496 37.0005 39.4376 37.3437 39.045L37.8975 38.4418C38.0899 38.2338 38.2693 37.9972 38.4643 37.7632C38.8673 37.3004 39.2443 36.7622 39.6447 36.2032C40.4874 34.9694 41.2208 33.6645 41.8365 32.3032C42.4374 30.9367 42.9151 29.5192 43.2639 28.0678C43.3393 27.7324 43.4095 27.4048 43.4823 27.0876C43.5551 26.7704 43.5863 26.4532 43.6383 26.1516C43.7527 25.5484 43.7917 24.979 43.8489 24.4616C43.8645 24.3342 43.8775 24.2016 43.8905 24.0846C43.9035 23.9676 43.8905 23.8402 43.9061 23.7232C43.9165 23.4892 43.9269 23.2682 43.9373 23.0602C43.9659 22.6468 43.9581 22.2802 43.9581 21.9994V21.3468V21.17C43.9577 21.1495 43.9612 21.1292 43.9685 21.1102Z" fill="#263238"/>
<path d="M34.3463 27.93H33.0281V20.7566C33.0049 19.9601 32.6722 19.204 32.1006 18.6488C31.529 18.0936 30.7635 17.783 29.9666 17.783C29.1698 17.783 28.4043 18.0936 27.8327 18.6488C27.2611 19.204 26.9283 19.9601 26.9051 20.7566V27.93H25.5869V20.7566C25.6148 19.6135 26.0884 18.5266 26.9067 17.728C27.7251 16.9293 28.8232 16.4823 29.9666 16.4823C31.11 16.4823 32.2082 16.9293 33.0265 17.728C33.8448 18.5266 34.3185 19.6135 34.3463 20.7566V27.93Z" fill="#F5F5F5"/>
<path d="M34.3588 23.0628H25.576C24.7417 23.0628 24.0654 23.7391 24.0654 24.5734V30.803C24.0654 31.6373 24.7417 32.3136 25.576 32.3136H34.3588C35.1931 32.3136 35.8694 31.6373 35.8694 30.803V24.5734C35.8694 23.7391 35.1931 23.0628 34.3588 23.0628Z" fill="white"/>
<path d="M34.3593 32.3136C34.4915 32.2996 34.6226 32.277 34.7519 32.246C35.0669 32.1551 35.3434 31.9636 35.5392 31.7006C35.735 31.4377 35.8393 31.1178 35.8361 30.79C35.8361 30.4858 35.8361 30.1556 35.8361 29.7994C35.8361 29.0896 35.8361 28.281 35.8361 27.3866C35.8361 26.4922 35.8361 25.5172 35.8361 24.4668C35.8165 24.205 35.7264 23.9534 35.5754 23.7387C35.4243 23.524 35.2179 23.3542 34.9781 23.2474C34.7223 23.1421 34.4451 23.0993 34.1695 23.1226H33.2959L25.5765 23.12C25.252 23.1199 24.937 23.2291 24.6822 23.4301C24.4275 23.6311 24.2479 23.912 24.1725 24.2276C24.1387 24.3847 24.1248 24.5454 24.1309 24.706V26.1698C24.1309 27.4698 24.1309 28.697 24.1309 29.88C24.1543 30.4676 24.0321 31.0734 24.3337 31.5362C24.4672 31.7635 24.6598 31.9505 24.8909 32.0773C25.1221 32.2041 25.3832 32.266 25.6467 32.2564H28.5717L32.8071 32.2798H33.9563H34.2553C34.2899 32.2765 34.3247 32.2765 34.3593 32.2798C34.3247 32.2837 34.2898 32.2837 34.2553 32.2798H33.9563H32.8071L28.5717 32.3006H25.6467C25.4319 32.3102 25.2173 32.2757 25.0164 32.1992C24.8154 32.1227 24.6323 32.0057 24.4783 31.8556C24.3243 31.7055 24.2027 31.5255 24.121 31.3265C24.0394 31.1276 23.9994 30.914 24.0035 30.699V29.88C24.0035 28.697 24.0035 27.4568 24.0035 26.1698V24.7164C23.9957 24.5419 24.0105 24.3671 24.0477 24.1964C24.1322 23.8557 24.3291 23.5534 24.6067 23.3384C24.8865 23.1171 25.2327 22.9962 25.5895 22.9952H33.2803H34.1539C34.447 22.9728 34.7412 23.021 35.0119 23.1356C35.2705 23.2511 35.4928 23.4348 35.655 23.667C35.8171 23.8992 35.913 24.1712 35.9323 24.4538C35.9323 25.5146 35.9323 26.487 35.9323 27.3814C35.9323 28.2758 35.9323 29.0844 35.9323 29.7942C35.9323 30.1504 35.9323 30.4806 35.9323 30.7848C35.9326 31.0695 35.8533 31.3487 35.7035 31.5908C35.4996 31.927 35.1719 32.1698 34.7909 32.2668C34.6512 32.3092 34.5048 32.3251 34.3593 32.3136Z" fill="#263238"/>
<path d="M30.8725 27.9274C30.9915 27.8087 31.0859 27.6677 31.1501 27.5124C31.2144 27.3571 31.2473 27.1907 31.2469 27.0226C31.2485 26.7804 31.1823 26.5425 31.0559 26.3359C30.9294 26.1293 30.7478 25.9621 30.5314 25.8532C30.3151 25.7443 30.0726 25.698 29.8313 25.7196C29.59 25.7411 29.3596 25.8297 29.1659 25.9752C28.9723 26.1207 28.8232 26.3175 28.7354 26.5432C28.6476 26.769 28.6246 27.0148 28.669 27.2529C28.7135 27.491 28.8236 27.712 28.9869 27.8909C29.1502 28.0698 29.3603 28.1995 29.5933 28.2654L29.3151 29.4978H30.5501L30.2901 28.2654C30.5059 28.2038 30.7021 28.0873 30.8595 27.9274" fill="#F0B73F"/>
<path d="M111.4 37.2042V47.7394C111.423 49.5594 111.691 52.4194 108.8 52.3258C106.307 52.0658 105.644 49.692 105.625 47.9916C105.625 47.1856 105.607 46.5122 105.599 46.4316C105.599 46.4316 102.869 46.208 102.638 43.5092C102.526 42.2092 102.516 39.5026 102.534 37.056C102.545 35.7889 103.033 34.5724 103.9 33.6484C104.767 32.7244 105.95 32.1606 107.214 32.0692L107.474 32.051C110.3 32.0094 111.447 34.3832 111.4 37.2042Z" fill="#FFBF9D"/>
<path d="M105.607 46.4316C106.854 46.3358 108.048 45.8847 109.047 45.1316C109.047 45.1316 108.334 47.1674 105.623 47.1206L105.607 46.4316Z" fill="#FF9A6C"/>
<path d="M107.154 38.1636C107.209 38.2182 107.521 37.966 107.97 37.9556C108.42 37.9452 108.75 38.1636 108.808 38.1064C108.865 38.0492 108.776 37.979 108.628 37.8776C108.43 37.7447 108.196 37.6774 107.957 37.6852C107.721 37.6926 107.493 37.7755 107.307 37.9218C107.172 38.0362 107.128 38.1376 107.154 38.1636Z" fill="#263238"/>
<path d="M107.146 39.4402C107.151 39.5358 107.194 39.6255 107.265 39.6897C107.336 39.754 107.43 39.7876 107.526 39.7834C107.572 39.7837 107.618 39.7747 107.662 39.7569C107.705 39.739 107.744 39.7127 107.776 39.6795C107.809 39.6463 107.835 39.6069 107.852 39.5635C107.869 39.5202 107.878 39.4738 107.877 39.4272C107.871 39.3322 107.828 39.2433 107.758 39.1793C107.687 39.1153 107.595 39.0811 107.5 39.084C107.453 39.084 107.407 39.0932 107.364 39.1111C107.321 39.1291 107.282 39.1553 107.249 39.1885C107.216 39.2216 107.19 39.2609 107.172 39.3041C107.155 39.3473 107.146 39.3935 107.146 39.4402Z" fill="#263238"/>
<path d="M106.023 41.32C105.799 41.2678 105.569 41.2434 105.339 41.2472C105.232 41.2472 105.131 41.229 105.108 41.1588C105.09 41.0499 105.107 40.9383 105.154 40.839C105.238 40.579 105.321 40.3008 105.414 40.0096C105.765 38.8292 106.012 37.862 105.966 37.849C105.919 37.836 105.594 38.7798 105.243 39.9602C105.16 40.2514 105.079 40.5296 105.001 40.7948C104.945 40.9273 104.936 41.0754 104.978 41.2134C104.995 41.25 105.021 41.282 105.053 41.3068C105.085 41.3316 105.122 41.3486 105.162 41.3564C105.223 41.3635 105.284 41.3635 105.344 41.3564C105.571 41.3713 105.799 41.3591 106.023 41.32Z" fill="#263238"/>
<path d="M107.346 36.2396C107.391 36.341 107.752 36.2656 108.186 36.2864C108.62 36.3072 108.966 36.4034 109.026 36.3072C109.047 36.263 108.979 36.1694 108.834 36.081C108.64 35.9721 108.423 35.9107 108.2 35.9016C107.978 35.8926 107.757 35.9362 107.554 36.029C107.401 36.1044 107.328 36.1928 107.346 36.2396Z" fill="#263238"/>
<path d="M103.054 36.9156C103.103 36.9988 103.454 36.9156 103.883 36.8948C104.312 36.874 104.663 36.9364 104.71 36.8506C104.728 36.809 104.658 36.7362 104.51 36.6712C104.309 36.5911 104.094 36.5557 103.878 36.5672C103.66 36.5732 103.445 36.6264 103.249 36.7232C103.103 36.7986 103.033 36.8766 103.054 36.9156Z" fill="#263238"/>
<path d="M98.9667 34.6354C98.9818 34.5805 99.0078 34.5293 99.0431 34.4846C99.0784 34.4399 99.1222 34.4028 99.1721 34.3754C99.3876 34.2772 99.6256 34.2386 99.8611 34.2636C100.581 34.2503 101.283 34.0369 101.889 33.6474C102.172 33.2409 102.488 32.8583 102.833 32.5034C103.652 31.661 104.323 31.0864 105.019 30.8056C105.919 30.4442 107.424 30.2856 108.363 30.5456C109.302 30.8056 110.144 31.5544 110.277 32.5138C110.797 32.0692 111.592 32.0744 112.234 32.3318H112.25C112.962 32.5918 113.368 33.3406 113.579 34.0686C113.789 34.7966 113.88 35.5766 114.265 36.2292C114.346 36.3644 114.442 36.5282 114.372 36.6712C114.339 36.7229 114.292 36.7636 114.235 36.7877C114.179 36.8119 114.117 36.8184 114.057 36.8064C113.937 36.7806 113.823 36.7291 113.724 36.6556C113.805 36.848 113.883 37.0378 113.963 37.2276C113.703 37.2729 113.436 37.2559 113.183 37.1782C113.052 37.8272 112.883 38.4679 112.676 39.097C112.41 39.0656 112.142 39.1311 111.92 39.2816C111.66 39.5078 111.558 39.9316 111.14 39.7704C110.929 39.6872 110.737 39.2504 110.664 39.0294C110.194 37.5894 110.039 36.0652 110.209 34.56C109.913 34.245 109.56 33.9892 109.169 33.806L109.2 33.8346C108.446 33.5746 107.593 33.3146 106.878 33.6682C106.325 33.9438 106 34.5184 105.578 34.9682C105.197 35.3957 104.733 35.7413 104.214 35.984C103.695 36.2267 103.132 36.3614 102.56 36.38C102.521 37.1392 102.583 38.213 102.544 38.98L101.905 37.7632C101.854 37.6789 101.808 37.5921 101.767 37.5032V37.4772C101.703 37.3287 101.631 37.1837 101.551 37.043C101.463 37.1141 101.351 37.1512 101.238 37.1476C101.124 37.144 101.016 37.0999 100.932 37.0233C100.848 36.9467 100.795 36.8426 100.781 36.7298C100.767 36.6171 100.794 36.5031 100.857 36.4086C100.921 36.3203 100.998 36.2422 101.086 36.1772C100.993 36.2675 100.878 36.3321 100.753 36.3645C100.627 36.3969 100.496 36.3959 100.371 36.3618C100.247 36.324 100.139 36.2465 100.064 36.1412C99.9886 36.0359 99.9502 35.9087 99.9547 35.7794C99.9654 35.6924 99.9987 35.6097 100.051 35.5395C100.104 35.4693 100.173 35.414 100.254 35.379C99.9189 35.4058 99.5838 35.3316 99.2917 35.1658C99.0837 35.054 98.8965 34.8746 98.9667 34.6354Z" fill="#263238"/>
<path d="M109.421 32.8284C109.515 32.9074 109.602 32.9944 109.681 33.0884C109.895 33.3453 110.037 33.6537 110.094 33.9828C110.142 34.2086 110.165 34.4386 110.165 34.6692C110.165 34.9292 110.146 35.1892 110.126 35.4648C110.101 35.7588 110.095 36.0541 110.107 36.3488C110.115 36.5062 110.135 36.6627 110.167 36.8168C110.191 36.9812 110.257 37.1368 110.357 37.2692C110.404 37.3217 110.464 37.361 110.531 37.3834C110.598 37.4057 110.67 37.4103 110.739 37.3966C110.871 37.3725 110.991 37.3047 111.08 37.2042C111.227 37.0031 111.317 36.7659 111.34 36.5178H111.285C111.366 36.722 111.476 36.913 111.613 37.0846C111.744 37.2424 111.929 37.3446 112.133 37.3706C112.228 37.3802 112.325 37.3631 112.411 37.3212C112.491 37.2792 112.558 37.214 112.601 37.134C112.64 37.0604 112.659 36.9781 112.658 36.8948C112.654 36.8173 112.623 36.7436 112.57 36.6868L112.541 36.7128C112.702 36.8965 112.899 37.0444 113.121 37.147C113.199 37.1817 113.259 37.2051 113.3 37.2172L113.365 37.2328L113.305 37.2068C113.264 37.1886 113.204 37.1652 113.131 37.1288C112.917 37.0201 112.726 36.8698 112.57 36.6868L112.541 36.7128C112.585 36.7694 112.611 36.8384 112.614 36.9101C112.617 36.9819 112.598 37.0529 112.559 37.1132C112.521 37.1837 112.462 37.2409 112.39 37.277C112.309 37.3159 112.219 37.3304 112.13 37.3186C111.94 37.2968 111.766 37.2039 111.641 37.0586C111.511 36.8899 111.405 36.7035 111.327 36.5048L111.288 36.419L111.27 36.5126C111.242 36.75 111.152 36.976 111.01 37.1678C110.928 37.2561 110.821 37.3162 110.703 37.3394C110.644 37.3514 110.583 37.3478 110.526 37.3291C110.469 37.3104 110.418 37.2773 110.378 37.2328C110.284 37.1089 110.224 36.9629 110.204 36.809C110.171 36.6582 110.151 36.5053 110.141 36.3514C110.129 36.0584 110.135 35.7649 110.159 35.4726C110.175 35.1918 110.193 34.9266 110.191 34.6744C110.189 34.4409 110.163 34.2083 110.112 33.9802C110.049 33.6449 109.898 33.3325 109.673 33.0754C109.604 32.9793 109.518 32.8958 109.421 32.8284Z" fill="#455A64"/>
<path d="M101.073 35.4518L101.096 35.47C101.117 35.4881 101.14 35.5046 101.164 35.5194C101.199 35.5484 101.238 35.5736 101.278 35.5948C101.331 35.6261 101.386 35.6547 101.442 35.6806C101.804 35.8446 102.2 35.916 102.596 35.8886C103.186 35.8488 103.751 35.6393 104.224 35.2854C104.796 34.85 105.272 34.3012 105.623 33.6734C105.82 33.3484 105.979 33.013 106.143 32.7036C106.311 32.4015 106.521 32.1248 106.767 31.882C106.983 31.6615 107.251 31.4988 107.547 31.4088C107.68 31.3718 107.819 31.356 107.958 31.362C108.084 31.3715 108.208 31.3978 108.327 31.44C108.537 31.5113 108.729 31.6265 108.891 31.778C109.013 31.8923 109.116 32.0258 109.195 32.1732C109.258 32.302 109.304 32.4383 109.333 32.5788C109.333 32.5788 109.333 32.5788 109.333 32.5502C109.333 32.5216 109.333 32.5008 109.32 32.467C109.298 32.3616 109.263 32.2594 109.216 32.1628C109.034 31.8051 108.721 31.5313 108.342 31.3984C108.217 31.3549 108.087 31.3278 107.955 31.3178C107.811 31.3117 107.668 31.3275 107.529 31.3646C107.224 31.4544 106.948 31.6199 106.725 31.8456C106.48 32.0911 106.272 32.3715 106.109 32.6776C105.93 32.9896 105.768 33.3224 105.576 33.6474C105.228 34.267 104.758 34.81 104.195 35.2438C103.732 35.5946 103.178 35.8049 102.599 35.8496C102.209 35.8803 101.817 35.8161 101.458 35.6624C101.325 35.6003 101.197 35.5299 101.073 35.4518Z" fill="#455A64"/>
<path d="M100.828 34.2662C100.828 34.2662 100.859 34.2948 100.924 34.3338C101.016 34.3893 101.112 34.438 101.21 34.4794C101.357 34.5419 101.51 34.5915 101.665 34.6276C101.856 34.6724 102.05 34.6985 102.245 34.7056C102.441 34.7104 102.637 34.6973 102.83 34.6666C102.987 34.6402 103.141 34.6002 103.29 34.547C103.392 34.5121 103.491 34.4696 103.587 34.4196C103.623 34.4034 103.657 34.3834 103.688 34.3598C103.688 34.3598 103.535 34.4248 103.277 34.5054C103.127 34.5501 102.974 34.5848 102.82 34.6094C102.63 34.6357 102.439 34.647 102.248 34.6432C102.056 34.6347 101.866 34.6112 101.678 34.573C101.525 34.5393 101.375 34.4941 101.229 34.4378C100.979 34.3416 100.833 34.2558 100.828 34.2662Z" fill="#455A64"/>
<path d="M103.036 38.1636C103.088 38.2182 103.4 37.966 103.852 37.9556C104.304 37.9452 104.632 38.1636 104.689 38.1064C104.746 38.0492 104.655 37.979 104.51 37.8776C104.311 37.7448 104.075 37.6776 103.836 37.6852C103.601 37.6925 103.374 37.7755 103.189 37.9218C103.051 38.0362 103.007 38.1376 103.036 38.1636Z" fill="#263238"/>
<path d="M103.496 39.4402C103.502 39.5351 103.544 39.624 103.615 39.688C103.685 39.7521 103.778 39.7863 103.873 39.7834C103.919 39.7837 103.966 39.7747 104.009 39.7569C104.052 39.7391 104.091 39.7129 104.124 39.6797C104.157 39.6465 104.183 39.6071 104.201 39.5637C104.218 39.5203 104.227 39.4739 104.226 39.4272C104.22 39.332 104.176 39.2431 104.106 39.1791C104.035 39.1152 103.942 39.0811 103.847 39.084C103.8 39.084 103.754 39.0932 103.711 39.1112C103.668 39.1291 103.629 39.1555 103.597 39.1886C103.564 39.2218 103.538 39.2611 103.521 39.3043C103.504 39.3474 103.495 39.3936 103.496 39.4402Z" fill="#263238"/>
<path d="M111.33 39.2192C111.374 39.1958 113.15 38.5354 113.22 40.384C113.29 42.2326 111.423 41.9258 111.418 41.8738C111.413 41.8218 111.33 39.2192 111.33 39.2192Z" fill="#FFBF9D"/>
<path d="M111.967 41.151C111.967 41.151 112.001 41.1718 112.055 41.1952C112.133 41.2253 112.219 41.2253 112.297 41.1952C112.413 41.1145 112.506 41.0043 112.565 40.8758C112.625 40.7474 112.649 40.6055 112.635 40.4646C112.635 40.306 112.598 40.1494 112.528 40.007C112.508 39.9491 112.474 39.8971 112.428 39.8558C112.383 39.8145 112.328 39.7851 112.268 39.7704C112.231 39.7631 112.193 39.7686 112.159 39.7861C112.126 39.8036 112.099 39.832 112.084 39.8666C112.06 39.9186 112.084 39.955 112.063 39.9602C112.042 39.9654 112.024 39.9316 112.034 39.8536C112.044 39.8077 112.068 39.7659 112.102 39.734C112.152 39.6948 112.215 39.6753 112.279 39.6794C112.355 39.6918 112.427 39.7233 112.488 39.771C112.549 39.8187 112.597 39.8812 112.627 39.9524C112.714 40.1119 112.76 40.2907 112.76 40.4724C112.76 40.8442 112.588 41.2004 112.323 41.2888C112.274 41.3053 112.222 41.3106 112.171 41.3043C112.119 41.298 112.07 41.2803 112.027 41.2524C111.967 41.1952 111.949 41.1536 111.967 41.151Z" fill="#FF9A6C"/>
<path d="M107.339 41.6892C107.354 41.6892 107.354 41.7984 107.292 41.9492C107.201 42.1521 107.053 42.3239 106.866 42.4432C106.683 42.5661 106.467 42.628 106.247 42.62C106.078 42.6044 105.987 42.5472 105.987 42.5342C105.987 42.5212 106.091 42.5342 106.247 42.5342C106.445 42.5196 106.636 42.4552 106.803 42.347C106.971 42.239 107.113 42.0941 107.217 41.9232C107.287 41.7802 107.318 41.684 107.339 41.6892Z" fill="#263238"/>
<path d="M116.647 114.793L117.198 121.033L119.153 125.859C119.185 125.943 119.199 126.033 119.194 126.123C119.188 126.213 119.164 126.3 119.122 126.38C119.08 126.46 119.022 126.529 118.951 126.585C118.88 126.64 118.799 126.68 118.711 126.701C118.608 126.732 118.499 126.739 118.392 126.721C118.286 126.703 118.185 126.661 118.098 126.597C116.982 125.786 112.96 122.801 112.916 122.414C112.859 121.91 111.832 115.766 111.832 115.766L116.647 114.793Z" fill="#455A64"/>
<path d="M118.727 126.709L112.819 121.709L112.879 122.172C112.918 122.432 112.923 122.562 113.1 122.721C114.67 124.143 116.319 125.474 118.04 126.709C118.146 126.759 118.261 126.784 118.378 126.784C118.495 126.784 118.61 126.759 118.716 126.709H118.727Z" fill="#263238"/>
<path d="M113.969 119.759C114.055 119.804 114.121 119.88 114.153 119.972C114.185 120.064 114.18 120.165 114.14 120.253C114.088 120.339 114.007 120.403 113.911 120.433C113.815 120.463 113.712 120.458 113.62 120.417C113.53 120.369 113.461 120.289 113.429 120.192C113.396 120.096 113.401 119.99 113.443 119.897C113.506 119.813 113.598 119.755 113.701 119.734C113.805 119.713 113.912 119.732 114.002 119.785" fill="white"/>
<path d="M116.891 124.135C116.93 124.151 117.042 123.808 117.411 123.594C117.646 123.48 117.898 123.407 118.157 123.379C118.157 123.363 118.072 123.324 117.916 123.319C117.71 123.317 117.507 123.372 117.331 123.477C117.158 123.577 117.019 123.726 116.93 123.904C116.873 124.039 116.873 124.133 116.891 124.135Z" fill="#263238"/>
<path d="M117.458 124.923C117.491 124.949 117.681 124.723 118.014 124.598C118.224 124.537 118.438 124.489 118.654 124.455C118.544 124.405 118.425 124.38 118.305 124.383C118.184 124.386 118.066 124.416 117.959 124.471C117.58 124.616 117.426 124.91 117.458 124.923Z" fill="#263238"/>
<path d="M115.89 123.155C116.15 122.948 116.426 122.761 116.714 122.596C117.026 122.468 117.346 122.363 117.673 122.281C117.319 122.228 116.957 122.296 116.646 122.474C116.111 122.731 115.866 123.139 115.89 123.155Z" fill="#263238"/>
<path d="M115.554 121.267C115.575 121.304 115.926 121.122 116.399 121.059C116.872 120.997 117.265 121.059 117.275 121.026C116.996 120.892 116.681 120.855 116.378 120.922C116.072 120.94 115.782 121.062 115.554 121.267Z" fill="#263238"/>
<path d="M115.347 119.437C115.62 119.3 115.919 119.218 116.224 119.198C116.529 119.177 116.836 119.218 117.125 119.317C117.125 119.302 117.055 119.232 116.891 119.164C116.676 119.079 116.444 119.044 116.213 119.06C115.982 119.073 115.758 119.14 115.557 119.255C115.401 119.343 115.331 119.424 115.347 119.437Z" fill="#263238"/>
<path d="M116.166 118.849C116.166 118.849 116.181 118.764 116.15 118.613C116.105 118.398 116.016 118.195 115.89 118.015C115.805 117.873 115.675 117.762 115.521 117.7C115.468 117.684 115.411 117.684 115.357 117.7C115.304 117.715 115.256 117.746 115.219 117.789C115.188 117.83 115.166 117.878 115.154 117.928C115.141 117.979 115.139 118.031 115.147 118.082C115.192 118.297 115.31 118.488 115.48 118.625C115.651 118.762 115.864 118.836 116.083 118.834C116.301 118.837 116.516 118.777 116.701 118.66C116.885 118.543 117.032 118.375 117.123 118.176C117.143 118.127 117.153 118.075 117.15 118.022C117.147 117.969 117.133 117.918 117.107 117.872C117.074 117.827 117.028 117.793 116.975 117.774C116.922 117.755 116.865 117.752 116.811 117.765C116.653 117.816 116.511 117.905 116.397 118.025C116.235 118.174 116.101 118.35 115.999 118.545C115.958 118.614 115.931 118.691 115.921 118.771C116.07 118.518 116.255 118.288 116.47 118.088C116.572 117.987 116.697 117.912 116.834 117.869C116.864 117.861 116.895 117.862 116.924 117.872C116.953 117.882 116.978 117.901 116.995 117.926C117.01 117.958 117.017 117.992 117.017 118.027C117.017 118.061 117.01 118.095 116.995 118.127C116.913 118.295 116.784 118.437 116.625 118.537C116.465 118.636 116.281 118.688 116.093 118.688C115.908 118.689 115.727 118.627 115.581 118.513C115.435 118.399 115.331 118.239 115.287 118.059C115.274 117.988 115.289 117.914 115.329 117.854C115.348 117.83 115.375 117.812 115.404 117.803C115.434 117.794 115.466 117.795 115.495 117.804C115.625 117.857 115.737 117.947 115.815 118.064C115.979 118.302 116.098 118.568 116.166 118.849Z" fill="#263238"/>
<path d="M100.906 115.116L101.151 120.407C101.151 120.407 95.5111 122.419 95.4565 123.402L106.39 123.321L106.366 115.061L100.906 115.116Z" fill="#455A64"/>
<path d="M104.528 119.936C104.631 119.962 104.72 120.025 104.778 120.114C104.836 120.203 104.858 120.31 104.84 120.415C104.809 120.517 104.74 120.604 104.648 120.658C104.555 120.713 104.446 120.731 104.341 120.708C104.232 120.682 104.138 120.615 104.077 120.521C104.016 120.427 103.994 120.314 104.013 120.204C104.056 120.099 104.137 120.013 104.241 119.965C104.344 119.917 104.461 119.909 104.57 119.944" fill="#E0E0E0"/>
<path d="M106.389 123.321L106.353 122.489L95.8828 122.877C95.8828 122.877 95.3992 123.08 95.4564 123.397L106.389 123.321Z" fill="#263238"/>
<path d="M100.974 120.36C100.974 120.409 101.234 120.43 101.494 120.589C101.754 120.747 101.9 120.958 101.949 120.937C101.998 120.916 101.915 120.628 101.593 120.441C101.27 120.253 100.961 120.311 100.974 120.36Z" fill="#263238"/>
<path d="M99.8301 120.81C99.8301 120.859 100.051 120.942 100.233 121.153C100.415 121.364 100.472 121.59 100.524 121.587C100.576 121.585 100.61 121.299 100.376 121.041C100.142 120.784 99.8327 120.763 99.8301 120.81Z" fill="#263238"/>
<path d="M99.1903 122.105C99.2397 122.105 99.3099 121.865 99.1721 121.585C99.0343 121.304 98.7821 121.205 98.7587 121.247C98.7353 121.288 98.8939 121.434 99.0031 121.66C99.1123 121.886 99.1383 122.102 99.1903 122.105Z" fill="#263238"/>
<path d="M101.06 119.143C101.083 119.19 101.32 119.12 101.629 119.143C101.938 119.167 102.167 119.247 102.193 119.206C102.219 119.164 101.996 118.985 101.639 118.969C101.283 118.953 101.047 119.104 101.06 119.143Z" fill="#263238"/>
<path d="M99.0029 77.1168C99.0029 77.421 100.272 119.718 100.272 119.718H107.032L108.402 83.5362C108.402 83.5362 110.001 102.454 110.001 102.862C110.001 103.27 111.41 119.921 111.41 119.921L117.676 119.44L117.263 81.36L116.498 75.7752L99.0029 77.1168Z" fill="#263238"/>
<path d="M109.106 82.1972C109.021 82.2457 108.929 82.2825 108.833 82.3064C108.654 82.3688 108.391 82.4546 108.069 82.5664L108.009 82.5846V82.5248C107.973 82.0178 107.929 81.3366 107.89 80.5904C107.845 79.7818 107.814 79.0512 107.799 78.5104C107.799 78.2504 107.786 78.0294 107.786 77.8812C107.778 77.8037 107.783 77.7255 107.801 77.6498C107.823 77.7242 107.835 77.8011 107.838 77.8786C107.856 78.0268 107.874 78.2426 107.892 78.5052C107.934 79.0252 107.981 79.7662 108.022 80.5852C108.064 81.3314 108.092 82.0126 108.108 82.5222L108.043 82.4806C108.371 82.3896 108.636 82.3168 108.823 82.27C108.915 82.2365 109.01 82.2122 109.106 82.1972Z" fill="#455A64"/>
<path d="M108.587 77.8006C108.587 77.8006 108.607 77.7668 108.678 77.7434C108.776 77.7173 108.881 77.7265 108.974 77.7694C109.044 77.795 109.104 77.8425 109.144 77.9048C109.185 77.9671 109.205 78.0409 109.2 78.1152C109.191 78.2092 109.152 78.2977 109.088 78.3672C109.024 78.4367 108.94 78.4833 108.847 78.5C108.752 78.5142 108.656 78.502 108.567 78.4648C108.479 78.4277 108.403 78.367 108.347 78.2894C108.308 78.2294 108.288 78.1594 108.288 78.0879C108.288 78.0164 108.308 77.9463 108.347 77.8864C108.401 77.8058 108.48 77.7446 108.571 77.7122C108.639 77.6888 108.678 77.694 108.68 77.6992C108.683 77.7044 108.527 77.7486 108.433 77.9254C108.406 77.9725 108.393 78.0266 108.395 78.0811C108.398 78.1356 108.417 78.1881 108.449 78.2322C108.491 78.2878 108.547 78.3311 108.612 78.3576C108.676 78.3842 108.746 78.3929 108.815 78.383C108.88 78.3706 108.939 78.3393 108.985 78.2929C109.032 78.2466 109.063 78.1874 109.075 78.123C109.081 78.0697 109.069 78.0161 109.042 77.9695C109.016 77.923 108.976 77.8858 108.927 77.863C108.823 77.8067 108.704 77.7848 108.587 77.8006Z" fill="#455A64"/>
<path d="M111.691 78.24C111.654 78.24 111.602 78.058 111.576 77.8292C111.55 77.6004 111.558 77.4106 111.595 77.408C111.631 77.4054 111.683 77.5874 111.709 77.8162C111.735 78.045 111.727 78.24 111.691 78.24Z" fill="#455A64"/>
<path d="M112.159 78.1906C112.123 78.1906 112.091 77.9956 112.091 77.7538C112.091 77.512 112.117 77.317 112.156 77.317C112.195 77.317 112.224 77.512 112.224 77.7538C112.224 77.9956 112.198 78.1906 112.159 78.1906Z" fill="#455A64"/>
<path d="M104.013 78.4818C103.977 78.4818 103.92 78.266 103.886 77.993C103.852 77.72 103.855 77.4912 103.886 77.4886C103.917 77.486 103.979 77.7044 104.013 77.98C104.047 78.2556 104.05 78.4792 104.013 78.4818Z" fill="#455A64"/>
<path d="M104.583 78.5234C104.463 78.3778 104.403 78.1917 104.416 78.0034C104.388 77.8215 104.43 77.6357 104.533 77.4834C104.572 77.4834 104.533 77.7226 104.551 78.0034C104.57 78.2842 104.619 78.513 104.583 78.5234Z" fill="#455A64"/>
<path d="M102.445 77.9592C102.448 78.0217 102.44 78.0841 102.422 78.1438C102.389 78.3125 102.344 78.4785 102.287 78.6404C102.094 79.1864 101.811 79.6961 101.449 80.1484C101.074 80.6149 100.628 81.0201 100.129 81.3496C99.9749 81.4511 99.8151 81.5431 99.6503 81.6252C99.5901 81.659 99.5265 81.686 99.4604 81.7058C99.4604 81.6902 99.7048 81.555 100.077 81.2872C100.555 80.9478 100.984 80.5435 101.351 80.086C101.705 79.64 101.993 79.1453 102.206 78.617C102.365 78.214 102.424 77.954 102.445 77.9592Z" fill="#455A64"/>
<path d="M117.057 80.8088C116.99 80.8286 116.921 80.8391 116.852 80.84C116.663 80.8549 116.474 80.8549 116.285 80.84C115.668 80.7806 115.074 80.5737 114.553 80.2368C114.06 79.9139 113.663 79.4651 113.401 78.9368C113.326 78.7832 113.266 78.622 113.225 78.4558C113.204 78.3975 113.194 78.3357 113.196 78.2738C113.217 78.2738 113.274 78.5338 113.479 78.9056C113.754 79.4084 114.148 79.8361 114.626 80.151C115.13 80.4764 115.7 80.686 116.295 80.7646C116.761 80.8166 117.054 80.788 117.057 80.8088Z" fill="#455A64"/>
<path d="M106.046 102.228C106.046 102.256 104.918 102.012 103.545 101.687C102.172 101.362 101.065 101.071 101.075 101.042C101.086 101.013 102.204 101.255 103.576 101.583C104.949 101.91 106.054 102.199 106.046 102.228Z" fill="#455A64"/>
<path d="M116.935 100.688C116.951 100.714 115.976 101.221 114.759 101.825C113.542 102.428 112.539 102.893 112.523 102.865C112.508 102.836 113.483 102.329 114.699 101.728C115.916 101.128 116.92 100.662 116.935 100.688Z" fill="#455A64"/>
<path d="M95.722 62.7934L96.645 63.9504V61.9614H99.557C99.557 61.9614 99.8794 66.514 99.817 67.4838C99.748 67.9893 99.6286 68.4866 99.4608 68.9684C99.3738 69.2488 99.2161 69.502 99.0027 69.7037C98.7894 69.9053 98.5277 70.0486 98.2429 70.1197C97.958 70.1908 97.6597 70.1872 97.3766 70.1095C97.0936 70.0317 96.8353 69.8822 96.6268 69.6756C96.3009 69.3585 95.9969 69.0198 95.7168 68.6616C94.4168 66.9976 92.2744 62.9416 92.2744 62.9416L94.5208 61.6L95.722 62.7934Z" fill="#FFBF9D"/>
<path d="M95.5371 62.5802C95.6471 62.765 95.7742 62.9391 95.9167 63.1002C96.1767 63.4044 96.5043 63.823 96.8917 64.2754C97.2791 64.7278 97.6483 65.1282 97.9317 65.4012C98.0753 65.5587 98.2419 65.6937 98.4257 65.8016C98.2938 65.6366 98.1514 65.4802 97.9993 65.3336C97.7393 65.0476 97.3805 64.6394 96.9931 64.187C96.2261 63.2666 95.5709 62.549 95.5371 62.5802Z" fill="#FF9A6C"/>
<path d="M102.362 48.808L105.433 47.6016L111.088 47.2818L113.745 48.2932L110.103 50.316L106.962 50.2016L102.362 48.808Z" fill="#FFBF9D"/>
<path d="M98.7402 77.694C99.0184 77.7408 117.546 78.5286 117.546 78.5286L116.906 61.86L116.852 58.5892L115.812 48.6806C115.812 48.6806 113.04 47.7264 111.628 47.2714C111.628 47.2714 110.141 48.8314 107.312 48.7794C104.549 48.7404 103.971 48.1164 103.971 48.1164L100.108 49.5984C100.108 49.5984 97.3596 50.5838 96.8864 51.8006C96.4132 53.0174 95.5864 59.7436 95.5864 59.7436H99.593L99.4864 71.6958L98.7402 77.694Z" fill="#455A64"/>
<g opacity="0.2">
<path d="M110.391 55.4588L110.966 59.6604L113.745 60.9006L115.799 59.1508V55.2508L110.391 55.4588Z" fill="black"/>
</g>
<path d="M115.726 56.66C115.726 56.6938 114.572 56.7224 113.147 56.7224C111.722 56.7224 110.565 56.6938 110.565 56.66C111.424 56.5948 112.286 56.5731 113.147 56.595C114.007 56.5731 114.868 56.5948 115.726 56.66Z" fill="#263238"/>
<path d="M97.4922 53.54C97.5054 53.5764 97.5159 53.6138 97.5234 53.6518C97.5416 53.735 97.565 53.839 97.5962 53.9716C97.696 54.3728 97.8193 54.7678 97.9654 55.1546C98.15 55.6512 98.41 56.2362 98.7298 56.8914C99.0496 57.5466 99.3044 58.3292 99.5878 59.1612C99.5878 60.1596 99.5878 61.2412 99.567 62.393C99.541 64.941 99.515 67.2472 99.4994 68.9294C99.4838 69.7562 99.4734 70.4296 99.463 70.9106C99.463 71.1342 99.4578 71.3136 99.4474 71.4488C99.4486 71.5114 99.4442 71.5741 99.4344 71.636C99.4299 71.5728 99.4299 71.5094 99.4344 71.4462C99.4344 71.3144 99.4344 71.135 99.4344 70.908C99.4344 70.4296 99.4344 69.7536 99.4344 68.9268C99.4344 67.2446 99.4552 64.9384 99.4682 62.393C99.4682 61.2516 99.489 60.1596 99.4968 59.1612V59.1794C99.2186 58.3474 98.9508 57.5752 98.6596 56.9122C98.3815 56.3413 98.1333 55.7564 97.916 55.1598C97.7755 54.7693 97.6617 54.3697 97.5754 53.9638C97.5494 53.8208 97.5286 53.7038 97.5182 53.6362C97.5066 53.605 97.4979 53.5728 97.4922 53.54Z" fill="#263238"/>
<path d="M117.135 51.5952C117.145 51.7138 117.145 51.8329 117.135 51.9514C117.135 52.2114 117.115 52.5286 117.099 52.9186C117.065 53.7558 117.021 54.8738 116.972 56.1088C116.922 57.3438 116.865 58.4644 116.829 59.3016C116.805 59.6916 116.787 60.0166 116.771 60.2688C116.771 60.3876 116.759 60.506 116.735 60.6224C116.726 60.5039 116.726 60.3848 116.735 60.2662C116.735 60.0062 116.735 59.689 116.753 59.299C116.774 58.48 116.81 57.3516 116.862 56.1062C116.914 54.8608 116.972 53.7298 117.024 52.916C117.05 52.5078 117.076 52.1776 117.099 51.9488C117.101 51.8301 117.113 51.7118 117.135 51.5952Z" fill="#263238"/>
<g opacity="0.3">
<path d="M97.5027 54.151C97.4322 55.9806 98.0862 57.7641 99.3227 59.1144C98.9457 57.3958 98.0045 55.7968 97.5027 54.151Z" fill="black"/>
</g>
<g opacity="0.3">
<path d="M105.641 70.6428C106.512 70.5268 107.306 70.0844 107.864 69.4052C108.45 68.7502 108.952 68.0244 109.359 67.2446C109.883 66.184 110.18 65.0258 110.232 63.8438C109.153 66.7376 107.572 69.0256 105.641 70.6428Z" fill="black"/>
</g>
<path d="M110.576 62.5828C110.574 62.6188 110.569 62.6545 110.56 62.6894C110.542 62.7726 110.518 62.8714 110.492 62.991C110.466 63.1106 110.425 63.2796 110.368 63.4616C110.31 63.6436 110.256 63.8516 110.173 64.0778C109.99 64.61 109.777 65.1309 109.533 65.6378C108.936 66.8788 108.171 68.0312 107.258 69.062C106.885 69.4826 106.486 69.8787 106.062 70.2476C105.888 70.4114 105.714 70.5414 105.565 70.661C105.417 70.7806 105.287 70.8768 105.175 70.9522L104.915 71.1264C104.856 71.1628 104.824 71.1836 104.822 71.1784C104.845 71.151 104.871 71.1265 104.9 71.1056L105.142 70.9132C105.248 70.8352 105.376 70.7338 105.519 70.609C105.662 70.4842 105.831 70.349 106.002 70.1852C106.413 69.8081 106.803 69.4089 107.17 68.9892C107.614 68.4712 108.028 67.9277 108.41 67.3616C108.783 66.7911 109.123 66.2 109.429 65.591C109.675 65.0906 109.894 64.5777 110.087 64.0544C110.175 63.8334 110.238 63.6254 110.297 63.446C110.357 63.2666 110.407 63.1106 110.443 62.9832C110.479 62.8558 110.505 62.77 110.531 62.6894C110.557 62.6088 110.57 62.5802 110.576 62.5828Z" fill="#263238"/>
<path d="M110.04 57.3672C110.036 57.4249 110.028 57.4822 110.016 57.5388C109.996 57.661 109.967 57.8222 109.933 58.0224C109.899 58.2226 109.847 58.4878 109.772 58.7816C109.697 59.0754 109.629 59.416 109.512 59.78C109.46 59.962 109.403 60.1544 109.343 60.3546C109.283 60.5548 109.205 60.7576 109.132 60.9683C108.995 61.3973 108.807 61.8392 108.612 62.3072C107.758 64.3273 106.611 66.21 105.206 67.8946C104.876 68.2742 104.567 68.6434 104.25 68.9606C104.094 69.1218 103.948 69.283 103.797 69.426C103.646 69.569 103.503 69.7094 103.363 69.8394C103.103 70.0994 102.822 70.3256 102.583 70.5232C102.344 70.7208 102.151 70.8847 101.98 71.0121L101.587 71.3084C101.544 71.346 101.497 71.3783 101.447 71.4046C101.485 71.3627 101.526 71.3244 101.572 71.2902L101.949 70.9756C102.115 70.843 102.318 70.6792 102.539 70.4738C102.76 70.2684 103.028 70.0501 103.295 69.7771L103.722 69.361C103.87 69.2154 104.013 69.0542 104.166 68.893C104.481 68.5732 104.785 68.204 105.113 67.8218C106.505 66.14 107.65 64.2682 108.514 62.263C108.706 61.7976 108.893 61.3608 109.034 60.937C109.109 60.7238 109.187 60.5236 109.249 60.326C109.312 60.1284 109.369 59.9386 109.426 59.7566C109.546 59.3952 109.621 59.0598 109.702 58.766C109.782 58.4722 109.84 58.22 109.881 58.012C109.923 57.804 109.962 57.6558 109.988 57.5336C109.999 57.4765 110.016 57.4207 110.04 57.3672Z" fill="#263238"/>
<path d="M95.3994 52.1854L102.534 63.0326C102.568 63.0838 102.586 63.1438 102.587 63.2053C102.588 63.2669 102.571 63.3273 102.539 63.3795C102.506 63.4316 102.459 63.4733 102.403 63.4993C102.347 63.5254 102.285 63.5349 102.224 63.5266L94.0084 62.4866C93.9652 62.4806 93.9236 62.466 93.8861 62.4437C93.8486 62.4213 93.8159 62.3917 93.79 62.3566L85.9432 51.6394C85.9044 51.5898 85.8809 51.53 85.8756 51.4672C85.8704 51.4044 85.8837 51.3415 85.9138 51.2862C85.944 51.2308 85.9897 51.1856 86.0453 51.1559C86.1008 51.1263 86.1639 51.1136 86.2266 51.1194L94.6792 51.7434C94.8252 51.7566 94.9662 51.8034 95.0911 51.8801C95.216 51.9568 95.3215 52.0612 95.3994 52.1854Z" fill="#E0E0E0"/>
<path d="M95.3995 52.1854C95.3818 52.15 95.36 52.1169 95.3345 52.0866C95.2622 51.9969 95.1741 51.9211 95.0745 51.863C94.9053 51.7746 94.7169 51.7291 94.5259 51.7304L93.7667 51.668L88.8943 51.2858L87.2797 51.161L86.4217 51.096C86.3463 51.096 86.2813 51.096 86.1955 51.096C86.1077 51.0989 86.0239 51.133 85.9589 51.1922C85.893 51.2524 85.8505 51.334 85.839 51.4226C85.8276 51.5111 85.848 51.6009 85.8965 51.6758L88.1793 54.8088C89.7913 57.011 91.5593 59.4316 93.4183 61.9744C93.5379 62.133 93.6445 62.2864 93.7745 62.4528C93.8145 62.4969 93.8644 62.5308 93.9201 62.5516C93.9712 62.5695 94.0247 62.58 94.0787 62.5828L94.3699 62.6192L95.5191 62.7648L97.7655 63.0456L102.014 63.5656C102.102 63.5656 102.175 63.589 102.274 63.5942C102.325 63.5946 102.375 63.5849 102.422 63.5657C102.469 63.5465 102.511 63.5182 102.547 63.4824C102.615 63.4125 102.655 63.3199 102.659 63.2224C102.655 63.1273 102.62 63.0361 102.56 62.9624L102.009 62.12L100.969 60.56L99.1071 57.7442C97.9683 56.0308 97.0479 54.6398 96.4057 53.6752L95.6647 52.5702C95.5815 52.4506 95.5165 52.3544 95.4671 52.2868C95.4462 52.253 95.4228 52.2208 95.3969 52.1906C95.4148 52.2264 95.4348 52.2612 95.4567 52.2946L95.6413 52.5858C95.8077 52.8458 96.0495 53.2228 96.3589 53.7038L99.0265 57.7988L100.875 60.6224L101.915 62.1954L102.456 63.0196C102.503 63.0743 102.53 63.1428 102.534 63.2146C102.531 63.2828 102.504 63.3477 102.456 63.3966C102.408 63.4446 102.342 63.4717 102.274 63.472C102.204 63.472 102.108 63.4512 102.027 63.4434L97.7707 62.9L95.5243 62.6166L94.3751 62.471L94.0865 62.4346C94.0434 62.431 94.0007 62.4232 93.9591 62.4112C93.9226 62.3971 93.8897 62.3748 93.8629 62.3462C93.7485 62.1902 93.6341 62.0368 93.5197 61.8782C91.6581 59.3406 89.8797 56.9226 88.2729 54.7204C87.4643 53.6232 86.6999 52.578 85.9823 51.6004C85.9555 51.5618 85.9397 51.5166 85.9365 51.4698C85.9333 51.4229 85.9429 51.376 85.9643 51.3341C85.9856 51.2922 86.0179 51.2569 86.0577 51.2319C86.0975 51.2069 86.1434 51.1932 86.1903 51.1922C86.2501 51.1922 86.3333 51.1922 86.4035 51.2052L87.2615 51.2676L88.8787 51.382L93.7667 51.72L94.5311 51.772C94.7175 51.7657 94.9024 51.8059 95.0693 51.889C95.1995 51.9629 95.3121 52.064 95.3995 52.1854Z" fill="#263238"/>
<path d="M85.9429 51.6472C85.999 51.6616 86.0565 51.6704 86.1145 51.6732L86.6137 51.7252L88.4701 51.889L94.7829 52.409L94.7335 52.3804C95.1287 52.968 95.5369 53.5764 95.9451 54.2004C97.6117 56.7614 99.0651 59.117 100.165 60.7914C100.711 61.6312 101.166 62.302 101.483 62.7648L101.852 63.2848C101.892 63.3482 101.938 63.4075 101.99 63.4616C101.956 63.3952 101.918 63.331 101.876 63.2692L101.527 62.7258L100.245 60.7316C99.1691 59.0442 97.7261 56.6834 96.0595 54.1198C95.6513 53.488 95.2405 52.8796 94.8427 52.2998L94.8245 52.2738H94.8063L88.4909 51.8058L86.6319 51.681L86.1301 51.6524C86.0679 51.646 86.0053 51.6443 85.9429 51.6472Z" fill="#263238"/>
<path d="M90.8335 53.3034C90.8383 53.2818 90.8475 53.2614 90.8604 53.2435C90.8733 53.2255 90.8898 53.2104 90.9087 53.199C90.9277 53.1876 90.9488 53.1801 90.9707 53.177C90.9926 53.174 91.0149 53.1754 91.0363 53.1812C91.12 53.2003 91.1966 53.2426 91.2573 53.3034C91.2958 53.3386 91.3209 53.3863 91.328 53.4381C91.3351 53.4898 91.3239 53.5425 91.2963 53.5868C91.2157 53.6882 91.0363 53.6492 90.9479 53.566C90.908 53.5356 90.8765 53.4956 90.8565 53.4496C90.8365 53.4036 90.8285 53.3533 90.8335 53.3034Z" fill="white"/>
<path d="M94.6715 59.3822C94.6715 59.3822 94.9939 58.6022 94.1723 58.5086C93.1789 58.4569 92.1835 58.4569 91.1901 58.5086C91.1901 58.5086 90.0071 58.6334 90.2567 59.481C90.2567 59.481 89.5599 60.105 89.9343 60.781C90.3087 61.457 90.4543 61.2542 90.4543 61.2542C90.4543 61.2542 90.3555 62.0784 90.9743 62.2006C90.9743 62.2006 91.6503 62.9988 92.2743 62.9494C92.8983 62.9 95.5373 61.6286 95.7115 61.3894C95.8857 61.1502 96.1353 60.9994 95.9871 60.7212C95.9871 60.7212 96.3095 59.9906 95.6127 59.8788C95.6179 59.8658 95.5685 59.26 94.6715 59.3822Z" fill="#FFBF9D"/>
<path d="M90.9224 59.6604C91.1052 59.6986 91.2923 59.7125 91.4788 59.702C91.822 59.702 92.2952 59.702 92.8178 59.702C93.2681 59.7152 93.7187 59.6891 94.1646 59.624C94.5182 59.5408 94.6586 59.3328 94.643 59.3276C94.4902 59.4244 94.321 59.4923 94.1438 59.5278C93.8188 59.5824 93.3378 59.5486 92.8152 59.5668C92.2926 59.585 91.8194 59.5902 91.4762 59.6058C91.29 59.6018 91.1041 59.6201 90.9224 59.6604Z" fill="#FF9A6C"/>
<path d="M91.5098 60.9084C91.5647 60.9406 91.6259 60.961 91.6892 60.9682C91.8602 61.003 92.0351 61.0143 92.2092 61.002C92.4629 60.9826 92.7139 60.9364 92.958 60.8642C93.2336 60.7888 93.5274 60.6822 93.8368 60.5886C94.1243 60.4934 94.4218 60.4315 94.7234 60.404C94.984 60.4282 95.2461 60.3758 95.4774 60.2532C95.5677 60.1921 95.6317 60.0993 95.6568 59.9932C95.6735 59.9139 95.6625 59.8313 95.6256 59.7592C95.5606 59.6422 95.4722 59.6344 95.4748 59.6396C95.4774 59.6448 95.5372 59.676 95.5762 59.7826C95.6011 59.8548 95.5994 59.9336 95.5712 60.0047C95.5431 60.0758 95.4904 60.1344 95.4228 60.17C95.2007 60.2677 94.9566 60.3045 94.7156 60.2766C94.4033 60.296 94.0949 60.3554 93.7978 60.4534L92.9242 60.742C92.688 60.8154 92.4463 60.8693 92.2014 60.9032C91.9711 60.9189 91.7402 60.9206 91.5098 60.9084Z" fill="#FF9A6C"/>
<path d="M92.3936 61.9614C92.583 61.9506 92.7701 61.9147 92.95 61.8548C93.288 61.769 93.7508 61.6364 94.25 61.4726C94.7492 61.3088 95.2068 61.1398 95.5292 61.0072C95.7124 60.9497 95.8872 60.8684 96.0492 60.7654C96.0336 60.729 95.2224 61.0254 94.2292 61.34C93.236 61.6546 92.3832 61.925 92.3936 61.9614Z" fill="#FF9A6C"/>
<path d="M92.1831 62.939C92.3385 62.9527 92.495 62.935 92.6433 62.887C93.006 62.799 93.3588 62.6744 93.6963 62.5152C94.0915 62.3358 94.4373 62.1512 94.6869 62.0186C94.8295 61.9584 94.9626 61.8778 95.0821 61.7794C94.5841 61.9403 94.1013 62.1448 93.6391 62.3904C92.8617 62.7648 92.1779 62.9 92.1831 62.939Z" fill="#FF9A6C"/>
<path d="M118.448 55.5056C118.448 55.5056 116.769 62.2344 114.67 64.72C112.637 67.1276 109.452 66.02 108.35 62.9C107.247 59.78 105.282 52.6794 105.282 52.6794L107.695 50.8334L111.855 58.9168L113.734 53.4074L118.448 55.5056Z" fill="#FFBF9D"/>
<path d="M105.394 52.8718L103.623 50.3056C103.365 50.25 103.113 50.1717 102.869 50.0716C102.669 49.9546 102.471 48.9354 102.476 48.7378C102.482 48.5402 102.133 48.0748 102.274 47.9422C102.414 47.8096 102.887 47.8018 102.861 47.612C102.861 47.5704 102.51 47.144 102.786 46.832C102.938 46.7316 103.107 46.6602 103.285 46.6214L103.256 45.6412C103.256 45.6412 103.776 44.4868 104.325 44.9054C104.325 44.9054 106.361 46.4654 106.566 46.7254C106.772 46.9854 107.557 50.2328 107.695 50.8438" fill="#FFBF9D"/>
<path d="M107.695 50.8386C107.692 50.7807 107.683 50.7232 107.669 50.667C107.64 50.5422 107.606 50.381 107.562 50.1782C107.468 49.7518 107.325 49.1382 107.133 48.3816C107.034 48.002 106.928 47.6016 106.79 47.1466C106.756 47.0374 106.72 46.9256 106.673 46.8112C106.619 46.6947 106.537 46.5936 106.434 46.5174C106.246 46.3536 106.051 46.1924 105.851 46.0286C105.448 45.7036 105.019 45.3656 104.575 45.0198C104.462 44.9199 104.336 44.8367 104.2 44.7728C104.121 44.7537 104.038 44.7537 103.958 44.7727C103.879 44.7917 103.805 44.8291 103.743 44.882C103.51 45.084 103.325 45.3342 103.199 45.6152V45.6308C103.199 45.727 103.199 45.8284 103.199 45.9298C103.199 46.1586 103.199 46.3874 103.22 46.611L103.267 46.5486C103.144 46.5782 103.024 46.6183 102.908 46.6682C102.843 46.6951 102.784 46.7339 102.734 46.7826C102.689 46.835 102.655 46.8961 102.635 46.962C102.602 47.0918 102.613 47.2291 102.666 47.352C102.688 47.4107 102.715 47.4673 102.747 47.521L102.791 47.5964V47.6146C102.792 47.6206 102.792 47.6268 102.791 47.6328C102.791 47.6536 102.739 47.6848 102.69 47.703C102.64 47.7212 102.586 47.7394 102.531 47.7576C102.475 47.7727 102.419 47.7909 102.365 47.8122C102.296 47.8319 102.237 47.874 102.196 47.9318C102.169 47.9985 102.169 48.0731 102.196 48.1398C102.211 48.1959 102.231 48.2506 102.255 48.3036C102.3 48.4076 102.349 48.5064 102.385 48.6026C102.404 48.6463 102.414 48.693 102.417 48.7404C102.418 48.7962 102.423 48.8518 102.432 48.9068C102.448 49.0134 102.466 49.1174 102.489 49.2214C102.53 49.4218 102.585 49.619 102.653 49.8116C102.686 49.9122 102.739 50.0051 102.809 50.0846C102.894 50.1395 102.987 50.1808 103.085 50.2068C103.264 50.2614 103.441 50.3056 103.605 50.3446L103.576 50.3264L104.876 52.188L105.24 52.6924C105.281 52.7532 105.326 52.8106 105.375 52.864C105.342 52.7993 105.305 52.7368 105.264 52.6768L104.92 52.1568C104.611 51.6966 104.177 51.0544 103.644 50.2692V50.2536H103.646C103.48 50.212 103.306 50.1652 103.126 50.1106C103.043 50.0868 102.964 50.0519 102.89 50.0066C102.834 49.9381 102.792 49.8596 102.765 49.7752C102.699 49.587 102.647 49.394 102.609 49.198C102.588 49.0966 102.57 48.9952 102.554 48.8912C102.554 48.8418 102.554 48.7872 102.554 48.7404C102.552 48.6799 102.54 48.6201 102.518 48.5636C102.479 48.457 102.43 48.3582 102.388 48.2568C102.365 48.2092 102.347 48.1596 102.333 48.1086C102.319 48.07 102.319 48.0276 102.333 47.989C102.363 47.9579 102.401 47.9354 102.443 47.924C102.494 47.9036 102.547 47.8862 102.601 47.872C102.656 47.8538 102.713 47.8382 102.77 47.8148C102.842 47.7926 102.902 47.7431 102.937 47.677C102.946 47.6558 102.951 47.6326 102.95 47.6094C102.949 47.593 102.945 47.577 102.937 47.5626V47.5418L102.892 47.4664C102.865 47.4171 102.84 47.3658 102.82 47.313C102.778 47.2154 102.769 47.1068 102.794 47.0036C102.807 46.9536 102.832 46.9074 102.866 46.8684C102.906 46.834 102.951 46.8067 102.999 46.7878C103.109 46.7407 103.222 46.7025 103.337 46.6734L103.384 46.6604V46.611C103.384 46.3874 103.371 46.1612 103.363 45.9324C103.363 45.831 103.363 45.727 103.363 45.6334V45.662C103.479 45.3996 103.65 45.1654 103.865 44.9756C103.911 44.933 103.967 44.9024 104.028 44.8865C104.088 44.8706 104.152 44.87 104.213 44.8846C104.334 44.9441 104.447 45.0193 104.549 45.1082C104.996 45.454 105.425 45.7894 105.828 46.1118C106.031 46.273 106.226 46.4316 106.41 46.5902C106.504 46.6565 106.578 46.7462 106.626 46.8502C106.67 46.9568 106.707 47.0686 106.743 47.1752C106.881 47.612 107.003 48.0254 107.097 48.3998C107.292 49.146 107.453 49.7518 107.565 50.186C107.619 50.3862 107.661 50.5474 107.692 50.6696C107.687 50.7259 107.688 50.7825 107.695 50.8386Z" fill="#FF9A6C"/>
<path d="M103.285 46.6214C103.285 46.6422 103.491 46.6214 103.805 46.6578C103.993 46.6868 104.179 46.7294 104.362 46.7852C104.6 46.8191 104.843 46.8191 105.082 46.7852C105.287 46.7564 105.496 46.7746 105.692 46.8386C105.889 46.9026 106.069 47.0106 106.218 47.1544C106.333 47.2824 106.426 47.4293 106.491 47.5886C106.492 47.496 106.474 47.4041 106.439 47.3187C106.403 47.2333 106.35 47.1561 106.283 47.092C106.148 46.9432 105.981 46.8268 105.794 46.7514C105.565 46.6626 105.318 46.6313 105.074 46.6604C104.845 46.6889 104.614 46.6889 104.385 46.6604C104.197 46.6081 104.005 46.5741 103.81 46.559C103.633 46.5449 103.454 46.5661 103.285 46.6214Z" fill="#FF9A6C"/>
<path d="M104.005 46.5668C104.034 46.5824 104.117 46.4628 104.107 46.2938C104.096 46.1248 104 46.0182 103.974 46.0338C103.948 46.0494 103.974 46.1638 103.974 46.2938C103.974 46.4238 103.971 46.5538 104.005 46.5668Z" fill="#FF9A6C"/>
<path d="M102.799 47.6484C103.313 47.6975 103.832 47.657 104.333 47.5288C104.515 47.4691 104.706 47.4444 104.897 47.456C105.045 47.4886 105.175 47.5747 105.264 47.6978C105.34 47.8202 105.408 47.9479 105.466 48.08C105.475 47.9225 105.43 47.7666 105.339 47.638C105.245 47.4866 105.096 47.3783 104.923 47.3364C104.717 47.3122 104.507 47.3326 104.309 47.3962C103.485 47.5834 102.799 47.612 102.799 47.6484Z" fill="#FF9A6C"/>
<path d="M102.528 48.574C102.652 48.603 102.781 48.603 102.905 48.574C103.137 48.548 103.449 48.4674 103.787 48.3998C103.943 48.365 104.103 48.3493 104.263 48.353C104.387 48.3552 104.507 48.3992 104.603 48.4778C104.689 48.5574 104.748 48.662 104.772 48.7768C104.772 48.7768 104.796 48.743 104.793 48.6728C104.782 48.5739 104.737 48.4819 104.666 48.4128C104.56 48.309 104.421 48.247 104.273 48.2386C104.099 48.2266 103.923 48.2397 103.753 48.2776C103.405 48.3452 103.103 48.4388 102.879 48.4856C102.76 48.5031 102.642 48.5327 102.528 48.574Z" fill="#FF9A6C"/>
<path d="M103.127 49.3073C103.106 49.3229 103.28 49.5048 103.597 49.5048L103.535 49.4503C103.535 49.5049 103.535 49.5594 103.553 49.614C103.562 49.8369 103.611 50.0564 103.699 50.2615C103.733 50.042 103.726 49.8179 103.678 49.6011L103.654 49.4373V49.3801H103.6C103.44 49.3734 103.281 49.349 103.127 49.3073Z" fill="#FF9A6C"/>
<path d="M115.791 48.691C115.791 48.691 119.231 49.523 119.223 54.086C119.215 58.649 118.183 60.9006 118.183 60.9006L111.842 57.44L113.267 53.8962L115.791 48.691Z" fill="#455A64"/>
<path d="M118.183 60.9006C118.137 60.8873 118.094 60.8681 118.053 60.8434L117.684 60.6562L116.332 59.9438L111.81 57.5076L111.758 57.4816L111.779 57.427L112.12 56.5378C112.525 55.4848 112.9 54.4812 113.264 53.5686C113.44 53.1136 113.607 52.6794 113.766 52.2686C113.904 51.887 114.072 51.5167 114.267 51.161C114.529 50.6288 114.923 50.173 115.411 49.8376C115.549 49.7517 115.7 49.6909 115.858 49.6582C115.899 49.6496 115.94 49.6443 115.981 49.6426H116.025C115.817 49.6859 115.619 49.7669 115.44 49.8818C114.971 50.2249 114.596 50.681 114.351 51.2078C114.164 51.5622 114.003 51.9298 113.869 52.3076C113.716 52.7158 113.552 53.15 113.378 53.6076L112.244 56.582L111.904 57.4712L111.873 57.388L116.386 59.8658L117.717 60.6146L118.074 60.8226C118.113 60.8445 118.149 60.8707 118.183 60.9006Z" fill="#263238"/>
</svg>
