<svg width="72" height="73" viewBox="0 0 72 73" fill="none" xmlns="http://www.w3.org/2000/svg">
<rect y="0.233398" width="72" height="72" rx="36" fill="white" fill-opacity="0.16"/>
<g clip-path="url(#clip0_9_1546)">
<path d="M21.8201 29.6751L23.9635 47.9001H48.0368L50.1801 29.6751L43.4968 34.1301L36.0001 23.6351L28.5035 34.1301L21.8201 29.6751ZM20.6685 24.9001L27.6668 29.5668L34.6435 19.8001C34.7976 19.5841 35.0012 19.408 35.2372 19.2865C35.4731 19.165 35.7347 19.1016 36.0001 19.1016C36.2656 19.1016 36.5271 19.165 36.7631 19.2865C36.9991 19.408 37.2026 19.5841 37.3568 19.8001L44.3335 29.5668L51.3335 24.9001C51.5984 24.7239 51.9082 24.6271 52.2264 24.6213C52.5445 24.6156 52.8577 24.701 53.1288 24.8675C53.4 25.034 53.6178 25.2747 53.7565 25.561C53.8953 25.8474 53.9492 26.1675 53.9118 26.4835L51.1735 49.7618C51.1257 50.1672 50.9308 50.541 50.6258 50.8123C50.3207 51.0835 49.9267 51.2334 49.5185 51.2335H22.4818C22.0736 51.2334 21.6796 51.0835 21.3745 50.8123C21.0695 50.541 20.8746 50.1672 20.8268 49.7618L18.0885 26.4818C18.0515 26.1659 18.1056 25.8461 18.2445 25.56C18.3834 25.2739 18.6012 25.0335 18.8723 24.8672C19.1434 24.7009 19.4564 24.6157 19.7744 24.6215C20.0923 24.6273 20.402 24.724 20.6668 24.9001H20.6685ZM36.0001 41.2335C35.1161 41.2335 34.2682 40.8823 33.6431 40.2571C33.018 39.632 32.6668 38.7842 32.6668 37.9001C32.6668 37.0161 33.018 36.1682 33.6431 35.5431C34.2682 34.918 35.1161 34.5668 36.0001 34.5668C36.8842 34.5668 37.732 34.918 38.3572 35.5431C38.9823 36.1682 39.3335 37.0161 39.3335 37.9001C39.3335 38.7842 38.9823 39.632 38.3572 40.2571C37.732 40.8823 36.8842 41.2335 36.0001 41.2335Z" fill="white"/>
</g>
<defs>
<clipPath id="clip0_9_1546">
<rect width="40" height="40" fill="white" transform="translate(16 16.2334)"/>
</clipPath>
</defs>
</svg>
