<svg width="72" height="73" viewBox="0 0 72 73" fill="none" xmlns="http://www.w3.org/2000/svg">
<rect y="0.232422" width="72" height="72" rx="36" fill="white" fill-opacity="0.16"/>
<g clip-path="url(#clip0_9_1543)">
<path d="M34.3335 19.5657C42.6135 19.5657 49.3335 26.2857 49.3335 34.5657C49.3335 42.8457 42.6135 49.5657 34.3335 49.5657C26.0535 49.5657 19.3335 42.8457 19.3335 34.5657C19.3335 26.2857 26.0535 19.5657 34.3335 19.5657ZM34.3335 46.2323C40.7785 46.2323 46.0002 41.0107 46.0002 34.5657C46.0002 28.119 40.7785 22.899 34.3335 22.899C27.8868 22.899 22.6668 28.119 22.6668 34.5657C22.6668 41.0107 27.8868 46.2323 34.3335 46.2323ZM48.4752 46.3507L53.1902 51.064L50.8318 53.4223L46.1185 48.7073L48.4752 46.3507Z" fill="white"/>
</g>
<defs>
<clipPath id="clip0_9_1543">
<rect width="40" height="40" fill="white" transform="translate(16 16.2324)"/>
</clipPath>
</defs>
</svg>
